<svg width="375" height="422" viewBox="0 0 375 422" fill="none" xmlns="http://www.w3.org/2000/svg">
<g clip-path="url(#clip0_2_1434)">
<path d="M0 118.599C0 118.599 13.8333 76.4389 42.7333 87.378C83.0333 102.606 186.333 346.158 294.733 346.158C350.3 346.158 375 303.599 375 303.599V-27H0V118.599Z" fill="url(#paint0_linear_2_1434)"/>
<path d="M164.708 146.791C164.708 146.791 167.175 130 186.075 130C204.975 130 214.142 151.479 218.408 164.081C222.675 176.682 233.675 188.552 248.008 195.568C262.342 202.583 273.175 210.131 271.342 226.024C271.342 226.024 302.008 249.964 243.575 254.386C185.142 258.808 156.442 222.134 159.975 203.248C163.508 184.363 140.708 158.761 164.708 146.791Z" fill="#3B2645"/>
<path d="M200.075 187.089C200.075 187.089 197.408 212.891 208.742 215.152C208.742 215.152 213.442 261.468 187.008 261.468C160.575 261.468 163.275 216.548 163.275 216.548C163.275 216.548 174.542 213.589 173.642 188.685C172.742 163.781 200.442 169.766 200.075 187.089Z" fill="#FFEDE5"/>
<path d="M192.208 189.383C194.442 180.905 182.942 179.176 175.208 178.943C174.108 181.437 173.475 184.662 173.608 188.685C173.775 192.21 173.608 195.767 173.175 199.292C177.575 199.624 189.508 199.591 192.208 189.383Z" fill="#E0855C"/>
<path d="M170.425 181.471C172.81 180.653 173.502 176.386 171.969 171.941C170.437 167.495 167.262 164.554 164.877 165.372C162.491 166.19 161.8 170.457 163.332 174.902C164.864 179.348 168.04 182.289 170.425 181.471Z" fill="#E0855C"/>
<path d="M210.125 174.863C211.657 170.417 210.965 166.15 208.58 165.332C206.195 164.514 203.02 167.455 201.487 171.901C199.955 176.347 200.647 180.614 203.032 181.431C205.417 182.249 208.593 179.308 210.125 174.863Z" fill="#E0855C"/>
<path d="M166.142 150.947C166.142 150.947 164.308 195.468 185.442 195.568C201.875 195.634 206.575 175.651 206.842 153.142C207.108 130.632 166.408 133.657 166.142 150.947Z" fill="#FFEDE5"/>
<path d="M187.108 182.534C183.575 182.534 180.475 180.406 180.442 180.373C180.275 180.273 180.242 180.074 180.375 179.907C180.475 179.741 180.675 179.708 180.842 179.841C180.908 179.874 186.908 183.964 191.342 180.473C191.475 180.373 191.708 180.373 191.808 180.539C191.908 180.705 191.908 180.905 191.742 181.005C190.242 182.135 188.642 182.534 187.108 182.534Z" fill="#472938"/>
<path d="M173.375 164.114C173.375 164.114 176.142 165.876 180.808 164.446C180.808 164.413 176.842 168.47 173.375 164.114Z" fill="#472938"/>
<path d="M199.908 164.48C199.908 164.48 197.142 166.242 192.475 164.812C192.475 164.812 196.442 168.869 199.908 164.48Z" fill="#472938"/>
<path d="M171.775 158.694C171.775 158.694 175.275 154.837 180.375 156.034C182.975 156.633 181.975 153.441 177.275 153.64C172.575 153.84 171.775 158.694 171.775 158.694Z" fill="#472938"/>
<path d="M201.775 158.694C201.775 158.694 198.275 154.837 193.175 156.034C190.575 156.633 191.575 153.441 196.275 153.64C200.975 153.84 201.775 158.694 201.775 158.694Z" fill="#472938"/>
<path d="M186.308 175.086C185.308 175.086 183.175 174.355 182.442 173.623C182.175 173.357 182.075 173.091 182.108 172.825C182.175 172.426 182.475 171.163 182.908 169.567C183.475 167.273 184.208 164.446 184.442 163.05C184.675 161.72 184.442 160.323 183.808 159.127C183.708 158.96 183.775 158.761 183.942 158.661C184.108 158.561 184.308 158.628 184.408 158.794C185.108 160.124 185.375 161.653 185.108 163.15C184.875 164.579 184.142 167.439 183.575 169.733C183.175 171.263 182.842 172.593 182.808 172.925C182.808 172.958 182.842 173.025 182.942 173.158C183.642 173.856 185.842 174.521 186.475 174.421C187.308 174.288 189.042 173.49 189.642 172.792C189.775 172.659 189.975 172.659 190.108 172.759C190.242 172.892 190.242 173.091 190.142 173.224C189.408 174.022 187.542 174.92 186.575 175.053C186.442 175.086 186.375 175.086 186.308 175.086Z" fill="#472938"/>
<path d="M166.442 162.352C166.442 162.352 167.775 151.745 171.075 147.855C171.075 147.855 176.608 145.394 185.408 150.615C194.208 155.835 200.375 160.224 208.542 158.927C208.542 158.927 209.308 133.624 188.208 134.987C167.108 136.351 162.775 147.356 166.442 162.352Z" fill="#3B2645"/>
<path d="M305.875 318.69C305.542 318.158 304.542 319.056 304.542 319.056C304.542 319.056 303.508 317.892 300.708 318.724C297.908 319.555 289.608 326.67 289.608 326.67C285.875 326.604 279.775 330.261 279.775 330.261C279.775 330.261 275.175 328.366 271.008 322.115C266.842 315.864 262.308 312.805 262.308 312.805C262.308 312.805 252.542 273.637 245.942 249.199C239.242 252.025 230.542 263.164 224.342 272.141C224.475 276.364 224.608 279.057 224.608 279.057C224.608 279.057 246.342 336.579 249.142 338.308C251.942 340.037 283.908 343.893 284.242 343.661C284.575 343.428 287.508 344.193 288.708 343.661C289.908 343.129 291.375 343.993 292.842 342.996C294.308 341.998 296.842 343.528 297.875 342.563C298.908 341.599 300.708 341.998 301.908 341.433C303.108 340.868 309.808 331.425 309.942 329.729C310.075 328.033 306.208 319.222 305.875 318.69Z" fill="#FFEDE5"/>
<path d="M229.942 260.67C229.942 260.67 241.308 280.021 232.308 299.073L224.575 278.991L229.942 260.67Z" fill="#E0855C"/>
<path d="M245.908 249.133C243.542 240.355 241.575 233.472 240.608 230.978C236.942 221.403 230.175 220.97 230.175 220.97C223.508 221.07 223.842 256.713 224.308 272.075C230.508 263.097 239.208 251.992 245.908 249.133Z" fill="#AB8DA8"/>
<path d="M254.908 314.833C254.775 314.833 254.642 314.734 254.575 314.601C254.542 314.434 254.642 314.235 254.808 314.202L261.342 312.473C261.508 312.439 261.708 312.539 261.742 312.705C261.775 312.872 261.675 313.071 261.508 313.104L254.975 314.833C254.975 314.833 254.942 314.833 254.908 314.833Z" fill="#472938"/>
<path d="M287.242 337.476C287.075 337.476 286.908 337.343 286.908 337.144C286.742 333.087 281.942 332.921 281.742 332.921C281.542 332.921 281.408 332.755 281.408 332.589C281.408 332.389 281.575 332.256 281.742 332.256C281.808 332.256 287.342 332.456 287.542 337.111C287.608 337.31 287.442 337.476 287.242 337.476C287.275 337.476 287.275 337.476 287.242 337.476Z" fill="#472938"/>
<path d="M285.775 340.502C285.742 340.502 285.675 340.502 285.642 340.469C285.475 340.402 285.408 340.203 285.475 340.037C285.875 339.172 289.475 331.392 290.975 330.394C292.208 329.563 293.708 329.829 294.308 330.361C294.708 330.693 294.575 331.026 294.542 331.126C294.375 331.491 292.442 336.279 291.475 338.74C291.408 338.906 291.208 339.006 291.042 338.939C290.875 338.873 290.775 338.673 290.842 338.507C290.942 338.208 293.542 331.757 293.908 330.926C293.842 330.86 293.675 330.727 293.342 330.66C293.075 330.594 292.208 330.427 291.342 330.993C290.208 331.757 287.142 338.008 286.042 340.369C286.008 340.436 285.908 340.502 285.775 340.502Z" fill="#472938"/>
<path d="M296.308 338.008C296.108 338.008 295.975 337.875 295.975 337.676C295.975 337.609 295.975 337.609 296.908 334.318C297.675 331.624 298.908 327.236 299.042 326.537C298.842 326.338 297.908 325.939 297.275 326.138C296.775 326.304 295.242 328.565 294.108 330.56C294.008 330.727 293.808 330.76 293.642 330.693C293.475 330.594 293.442 330.394 293.508 330.228C294.108 329.197 296.108 325.806 297.042 325.473C297.842 325.207 298.875 325.573 299.342 325.906C299.575 326.072 299.708 326.271 299.708 326.438C299.708 326.637 299.242 328.333 297.542 334.451C297.108 336.013 296.675 337.51 296.642 337.676C296.642 337.875 296.475 338.008 296.308 338.008Z" fill="#472938"/>
<path d="M301.008 337.31C300.975 337.31 300.975 337.31 300.942 337.31C300.775 337.277 300.642 337.077 300.675 336.911C301.842 331.724 303.542 323.811 303.575 322.946C303.442 322.747 302.842 322.414 301.808 322.414C301.242 322.414 299.808 324.31 298.842 326.072C298.742 326.238 298.542 326.305 298.375 326.205C298.208 326.105 298.142 325.906 298.242 325.739C298.775 324.808 300.575 321.749 301.808 321.749C302.975 321.749 303.942 322.148 304.208 322.714C304.275 322.847 304.442 323.212 301.308 337.044C301.308 337.21 301.175 337.31 301.008 337.31Z" fill="#472938"/>
<path d="M303.508 322.747C303.375 322.747 303.242 322.647 303.175 322.514C302.642 320.818 304.208 318.923 304.275 318.857C304.408 318.724 304.608 318.69 304.742 318.823C304.875 318.956 304.908 319.156 304.775 319.289C304.775 319.322 303.375 320.985 303.808 322.348C303.875 322.514 303.775 322.714 303.575 322.78C303.575 322.747 303.542 322.747 303.508 322.747Z" fill="#472938"/>
<path d="M301.742 334.085C301.675 334.085 301.608 334.052 301.575 334.018C301.408 333.919 301.375 333.719 301.475 333.553L304.208 329.43L303.408 324.443C303.375 324.276 303.508 324.077 303.675 324.077C303.842 324.044 304.042 324.177 304.042 324.343L304.908 329.596L302.042 333.952C301.942 334.018 301.842 334.085 301.742 334.085Z" fill="#472938"/>
<path d="M70.575 324.243C70.875 323.711 71.9083 324.542 71.9083 324.542C71.9083 324.542 72.9083 323.345 75.7417 324.077C78.575 324.808 87.1417 331.558 87.1417 331.558C90.8417 331.358 97.1417 334.75 97.1417 334.75C97.1417 334.75 101.675 332.655 105.608 326.238C109.542 319.821 113.942 316.562 113.942 316.562C113.942 316.562 122.108 277.062 127.742 252.325C134.542 254.885 143.675 265.658 150.242 274.369C150.275 278.592 150.275 281.285 150.275 281.285C150.275 281.285 130.875 339.604 128.142 341.466C125.408 343.328 93.6083 348.415 93.3083 348.216C93.0083 348.016 90.075 348.881 88.8417 348.382C87.6083 347.883 86.2083 348.848 84.675 347.883C83.1417 346.919 80.7083 348.548 79.6083 347.651C78.5083 346.753 76.775 347.185 75.5083 346.686C74.2417 346.188 67.2083 337.011 67.0083 335.315C66.8083 333.619 70.275 324.775 70.575 324.243Z" fill="#FFEDE5"/>
<path d="M144.142 263.264C144.142 263.264 133.575 283.08 143.308 301.733L150.208 281.351L144.142 263.264Z" fill="#E0855C"/>
<path d="M127.708 252.358C129.708 243.514 131.408 236.564 132.275 234.004C135.542 224.295 142.308 223.564 142.308 223.564C148.975 223.398 150.042 259.041 150.208 274.402C143.642 265.724 134.508 254.951 127.708 252.358Z" fill="#AB8DA8"/>
<path d="M121.342 318.358C121.308 318.358 121.308 318.358 121.275 318.358L114.675 316.895C114.508 316.862 114.375 316.662 114.408 316.496C114.442 316.33 114.642 316.197 114.808 316.23L121.408 317.693C121.575 317.726 121.708 317.926 121.675 318.092C121.642 318.258 121.475 318.358 121.342 318.358Z" fill="#472938"/>
<path d="M89.9083 342.264C89.7083 342.264 89.575 342.098 89.575 341.932C89.6083 337.244 95.1084 336.845 95.175 336.845C95.3417 336.845 95.5083 336.978 95.5417 337.144C95.5417 337.343 95.4083 337.476 95.2417 337.51C95.0417 337.51 90.275 337.875 90.275 341.932C90.2417 342.131 90.1083 342.264 89.9083 342.264Z" fill="#472938"/>
<path d="M91.5417 345.223C91.4083 345.223 91.3083 345.157 91.2417 345.057C90.075 342.763 86.7417 336.612 85.575 335.88C84.675 335.348 83.8083 335.548 83.5417 335.614C83.2417 335.714 83.075 335.847 83.0084 335.914C83.4084 336.745 86.2417 343.095 86.375 343.395C86.4417 343.561 86.375 343.76 86.2083 343.827C86.0417 343.893 85.8417 343.827 85.775 343.661C84.675 341.234 82.575 336.512 82.4084 336.146C82.275 335.914 82.375 335.614 82.6084 335.382C83.175 334.85 84.675 334.517 85.9417 335.282C87.5083 336.213 91.4083 343.86 91.8417 344.725C91.9083 344.891 91.875 345.09 91.7083 345.157C91.6417 345.223 91.575 345.223 91.5417 345.223Z" fill="#472938"/>
<path d="M80.875 343.129C80.7084 343.129 80.575 343.029 80.5417 342.863C80.5084 342.697 80.075 341.367 79.575 339.804C77.575 333.653 77.0417 331.924 77.0417 331.724C77.0417 331.525 77.1417 331.358 77.375 331.192C77.8417 330.826 78.8417 330.427 79.675 330.66C80.6417 330.926 82.775 334.251 83.4083 335.249C83.5083 335.415 83.4417 335.614 83.3084 335.714C83.1417 335.814 82.9417 335.747 82.8417 335.614C81.6084 333.653 79.975 331.458 79.5084 331.325C78.8417 331.126 77.9417 331.591 77.7417 331.791C77.9084 332.389 79.3417 336.911 80.2417 339.638C81.2417 342.73 81.2417 342.73 81.2417 342.796C81.2417 342.963 81.075 343.129 80.875 343.129C80.9084 343.129 80.9084 343.129 80.875 343.129Z" fill="#472938"/>
<path d="M76.175 342.663C76.0417 342.663 75.9083 342.563 75.8417 342.43C72.175 328.698 72.3417 328.333 72.375 328.2C72.6083 327.601 73.5417 327.169 74.7417 327.136H74.775C76.0083 327.136 77.9083 330.095 78.475 330.993C78.575 331.159 78.5083 331.358 78.375 331.458C78.2083 331.558 78.0083 331.491 77.9083 331.358C76.875 329.663 75.375 327.801 74.8083 327.801C73.8083 327.834 73.2083 328.2 73.075 328.399C73.1417 329.264 75.175 337.111 76.5417 342.231C76.575 342.397 76.475 342.597 76.3083 342.63C76.2083 342.63 76.175 342.663 76.175 342.663Z" fill="#472938"/>
<path d="M73.1083 328.233C73.075 328.233 73.0416 328.233 73.0083 328.233C72.8416 328.2 72.7083 328 72.775 327.834C73.1416 326.438 71.7083 324.842 71.675 324.808C71.5416 324.675 71.575 324.476 71.7083 324.343C71.8416 324.21 72.0416 324.243 72.175 324.376C72.2416 324.443 73.875 326.271 73.4083 328C73.375 328.133 73.2416 328.233 73.1083 328.233Z" fill="#472938"/>
<path d="M75.3084 339.438C75.2084 339.438 75.1084 339.405 75.0417 339.305L72.0084 335.082L72.6417 329.796C72.675 329.629 72.8417 329.496 73.0084 329.496C73.175 329.53 73.3084 329.696 73.3084 329.862L72.7084 334.883L75.6084 338.906C75.7084 339.039 75.675 339.272 75.5417 339.372C75.4417 339.438 75.375 339.438 75.3084 339.438Z" fill="#472938"/>
<path d="M208.708 215.152L230.175 220.97C230.175 220.97 227.575 255.583 232.008 262.732C236.442 269.88 233.975 286.139 228.608 294.219C228.608 294.219 220.008 321.816 222.342 328.3C224.675 334.783 232.508 349.114 232.508 349.114C232.508 349.114 197.542 366.802 146.942 351.075C146.942 351.075 156.975 329.995 155.408 321.916C153.842 313.836 143.008 291.326 143.142 280.686C143.275 270.047 146.675 241.652 141.708 223.697L163.175 216.548C163.175 216.548 163.542 258.709 187.975 258.709C212.408 258.709 208.708 215.152 208.708 215.152Z" fill="#AB8DA8"/>
<path d="M228.642 294.219C228.642 294.219 225.975 299.539 209.042 301.766C209.042 301.766 225.342 302.997 223.708 312.772L228.642 294.219Z" fill="#543753"/>
<path d="M145.475 292.723C145.475 292.723 149.475 300.204 167.575 301.899C167.575 301.899 147.742 298.907 151.442 309.746L145.475 292.723Z" fill="#543753"/>
<path d="M143.242 282.548C143.075 282.548 142.908 282.415 142.908 282.249C142.875 281.684 142.842 281.185 142.875 280.686C142.908 278.292 143.108 275.034 143.308 271.244C143.608 266.057 143.975 259.606 144.075 252.99C144.075 252.79 144.208 252.657 144.408 252.657C144.608 252.657 144.742 252.823 144.742 252.99C144.642 259.606 144.275 266.09 143.975 271.277C143.742 275.067 143.575 278.326 143.542 280.72C143.542 281.185 143.542 281.684 143.575 282.216C143.575 282.349 143.442 282.515 143.242 282.548Z" fill="#472938"/>
<path d="M232.008 263.064C231.908 263.064 231.775 262.998 231.708 262.898C230.242 260.537 229.375 255.118 229.142 246.805C229.142 246.606 229.275 246.473 229.475 246.473C229.642 246.473 229.808 246.606 229.808 246.805C230.042 255.018 230.875 260.338 232.275 262.565C232.375 262.732 232.308 262.931 232.175 263.031C232.142 263.031 232.075 263.064 232.008 263.064Z" fill="#472938"/>
<path d="M148.108 348.615C148.108 348.615 166.942 355.763 188.975 354.999C211.008 354.234 255.108 338.341 275.708 341.599C296.308 344.858 294.975 353.602 294.275 357.625C293.575 361.649 250.808 421.996 213.242 421.996H155.675C155.675 421.996 84.9416 377.542 82.6416 364.708C80.3416 351.873 82.0083 344.193 101.742 343.827C121.475 343.461 142.808 346.886 148.108 348.615Z" fill="#3B2645"/>
<path d="M188.242 368.199C188.242 368.199 216.375 356.528 239.875 352.505C239.875 352.505 255.008 375.913 250.575 395.696C250.542 395.696 196.742 383.926 188.242 368.199Z" fill="#FFEDE5"/>
<path d="M188.242 368.199C188.242 368.199 256.308 377.076 250.542 395.696C244.775 414.316 188.242 368.199 188.242 368.199Z" fill="#E0855C"/>
<path d="M218.842 401.88C218.842 401.88 149.075 407.865 133.775 410.991C118.475 414.116 102.975 412.72 93.5083 416.012C84.0416 419.303 78.8083 421.83 77.675 421.963C76.5416 422.096 73.9416 407.433 78.7083 402.246C78.7083 402.246 77.2416 396.96 83.9083 392.87C90.575 388.78 101.642 394.167 105.742 392.87C109.842 391.573 112.775 390.376 117.142 391.307C121.508 392.238 132.175 394.865 132.175 394.865C132.175 394.865 187.108 360.053 218.842 401.88Z" fill="#FFEDE5"/>
<path d="M132.208 394.865L173.642 406.103L218.842 401.88C218.842 401.88 198.242 380.734 169.808 382.696C141.375 384.657 132.208 394.865 132.208 394.865Z" fill="#E0855C"/>
<path d="M146.642 353.07C146.642 353.07 168.042 357.393 198.975 373.552C229.908 389.711 255.508 383.095 264.542 386.22C273.575 389.345 290.708 386.918 293.508 389.345C296.308 391.773 298.142 396.029 296.475 397.857C296.475 397.857 303.942 414.947 303.242 416.078C302.542 417.208 299.942 417.109 298.708 416.843C297.475 416.577 286.608 411.19 274.108 408.963C261.608 406.735 227.142 401.947 199.675 400.55C172.208 399.154 132.208 396.394 132.208 396.394C132.208 396.394 133.142 362.779 146.642 353.07Z" fill="#FFEDE5"/>
<path d="M294.208 398.556C293.142 398.556 291.708 398.356 289.875 397.724C289.708 397.658 289.608 397.458 289.675 397.292C289.742 397.126 289.942 397.026 290.108 397.092C294.242 398.556 296.242 397.558 296.275 397.558C296.442 397.458 296.642 397.525 296.708 397.691C296.808 397.857 296.742 398.057 296.575 398.123C296.542 398.123 295.775 398.556 294.208 398.556Z" fill="#472938"/>
<path d="M82.075 403.277C79.7416 403.277 78.6083 402.545 78.5416 402.512C78.375 402.412 78.3416 402.213 78.4416 402.047C78.5416 401.88 78.7416 401.847 78.9083 401.947C78.9083 401.947 80.1083 402.678 82.4416 402.579C84.875 402.512 87.5083 401.315 87.5416 401.315C87.7083 401.249 87.9083 401.315 87.975 401.481C88.0416 401.648 87.975 401.847 87.8083 401.914C87.7083 401.98 85.0083 403.144 82.475 403.244C82.3416 403.277 82.2083 403.277 82.075 403.277Z" fill="#472938"/>
</g>
<defs>
<linearGradient id="paint0_linear_2_1434" x1="-43.1034" y1="178.237" x2="435.119" y2="189.485" gradientUnits="userSpaceOnUse">
<stop stop-color="#F77F00"/>
<stop offset="1" stop-color="#D62828"/>
</linearGradient>
<clipPath id="clip0_2_1434">
<rect width="375" height="422" fill="white"/>
</clipPath>
</defs>
</svg>
