<svg width="381" height="350" viewBox="0 0 351 270" fill="none" xmlns="http://www.w3.org/2000/svg">
<path fill-rule="evenodd" clip-rule="evenodd" d="M172.418 259.733C154.057 256.451 138.191 245.255 119.64 243.323C90.4308 240.283 47.6929 270.531 32.667 245.185C16.299 217.575 75.2261 188.471 68.4977 157.055C61.9012 126.254 4.2845 124.988 0.233689 93.7469C-3.11907 67.8894 30.3623 50.3126 53.0039 37.561C73.295 26.1331 97.6537 26.2599 120.911 25.7817C138.574 25.4186 155.117 38.7014 172.418 35.1057C195.893 30.2267 211.354 1.70671 235.324 2.00227C258.009 2.28199 292.755 13.8041 293.04 36.593C293.461 70.1735 224.678 87.1647 236.784 118.469C251.667 156.956 325.169 137.256 345.781 172.977C359.031 195.939 328.4 225.001 307.953 241.808C288.064 258.155 260.567 260.591 235.089 263.961C214.067 266.742 193.293 263.465 172.418 259.733Z" fill="url(#paint0_linear_1_1093)"/>
<path d="M211.231 13.3478C211.231 13.3478 229.702 17.8013 237.015 26.396C244.328 34.9908 241.814 57.1432 239.907 69.8957C238.001 82.6481 232.89 91.8673 238.938 96.3208C244.985 100.774 247.155 96.6495 247.155 96.6495C247.155 96.6495 238.938 110.651 230.277 112.574C221.617 114.496 209.571 103.65 207.665 94.1023C205.758 84.5544 204.477 70.2079 206.021 60.3313C207.566 50.4548 210.59 47.1023 212.118 40.4139C213.647 33.7254 212.43 22.5835 212.43 22.5835L211.231 13.3478Z" fill="#3B2645"/>
<path d="M184.478 254.938C221.417 254.938 251.362 229.841 251.362 198.883C251.362 167.924 221.417 142.828 184.478 142.828C147.538 142.828 117.593 167.924 117.593 198.883C117.593 229.841 147.538 254.938 184.478 254.938Z" fill="#AB8DA8"/>
<path d="M127.749 67.0694L126.287 66.0998L119.467 55.8782L124.923 44.8677L137.182 44.0624L138.645 45.0485L127.749 67.0694Z" fill="#393762"/>
<path d="M140.008 66.2804L127.749 67.0692L120.929 56.8475L126.368 45.837L138.644 45.0482L145.448 55.2699L140.008 66.2804Z" fill="#636183"/>
<path d="M169.523 62.4187C166.458 65.8 163.84 69.5613 161.734 73.6099C157.593 81.1693 147.125 91.6868 145.185 93.8232C144.272 94.9719 143.101 95.8896 141.767 96.5018C139.921 91.0959 138.46 85.5658 137.396 79.9533C136.426 73.3798 134.964 60.4631 134.964 60.4631L138.858 52.6736C138.858 52.6736 135.687 46.3302 134.471 45.8701C133.255 45.4099 130.822 46.1001 127.174 49.2718C123.526 52.4435 122.047 55.5987 123.756 59.477C125.465 63.3554 129.113 67.2666 128.686 73.5935C128.259 79.9204 128.456 102.089 130.642 109.386C132.827 116.682 132.597 116.699 135.572 116.699C138.546 116.699 147.075 113.034 156.032 108.482C161.277 105.862 165.73 101.891 168.932 96.9784L169.523 62.4187Z" fill="#FFEDE5"/>
<path d="M188.027 58.5343C183.941 57.8396 179.76 57.9177 175.702 58.7644C169.654 60.227 166.516 64.0889 165.3 71.106C164.084 78.1231 159.745 86.8329 162.654 93.4063C165.563 99.9797 168.208 105.025 168.455 110.333C168.573 115.399 168.337 120.468 167.748 125.501C167.267 126.507 166.718 127.479 166.105 128.41C166.105 128.41 165.612 132.272 153.517 128.886C141.422 125.501 125.958 126.471 110.001 130.102C94.0437 133.734 85.5804 136.676 84.8574 141.951C84.1343 147.226 84.1343 180.143 85.5804 189.822C86.3938 196.339 86.2331 202.941 85.1039 209.411C81.0961 212.2 76.7983 214.547 72.2857 216.411C65.5151 219.074 61.6532 220.52 62.8528 222.985C64.0525 225.45 68.6539 225.894 74.4549 225.894C80.256 225.894 88.2427 225.417 88.2427 225.417C88.2427 225.417 80.9955 230.002 76.1476 233.141C71.2997 236.28 66.7312 237.019 68.9004 240.404C71.0696 243.79 91.9074 242.82 96.9525 242.82C101.998 242.82 107.831 240.881 108.308 238.712C108.785 236.543 106.862 229.032 106.862 226.14C106.862 223.248 106.139 210.413 109.031 204.612C111.923 198.811 116.295 181.885 116.048 175.36C115.802 168.836 115.325 164.728 115.325 164.728C115.325 164.728 143.098 168.54 153.944 172.402C164.79 176.264 188.997 179.42 200.369 173.865C211.741 168.31 216.326 161.523 214.633 151.86C212.94 142.198 208.339 135.903 209.555 124.531C210.771 113.159 210.755 102.05 213.664 96.4958C216.572 90.9413 223.096 81.0154 222.603 74.4913C222.11 67.9672 210.032 61.3445 203.984 59.0109C197.937 56.6773 188.027 58.5343 188.027 58.5343Z" fill="#FFEDE5"/>
<path d="M84.7918 142.532C84.0687 147.84 84.0687 180.724 85.5149 190.403C86.3282 196.92 86.1676 203.522 85.0383 209.992C81.0305 212.781 76.7328 215.128 72.2201 216.993C65.4495 219.655 61.5876 221.101 62.7873 223.566C63.9869 226.031 68.5883 226.475 74.3894 226.475C79.3194 226.475 85.7778 226.13 87.6348 226.015C88.8016 225.637 91.0859 224.832 91.0859 224.372C91.0859 223.911 93.0086 206.295 93.2551 189.302C93.5016 172.31 95.4408 152.688 95.4408 152.688L93.2715 143.979C91.2813 142.109 89.1374 140.411 86.8624 138.901C85.7567 139.822 85.0213 141.112 84.7918 142.532Z" fill="#FFEDE5"/>
<path d="M90.5928 217.962C90.5928 217.962 89.8698 216.319 88.6537 213.131C88.4395 212.303 87.9793 211.56 87.3337 211C86.6882 210.439 85.8878 210.088 85.0383 209.992C81.0305 212.781 76.7328 215.128 72.2201 216.993C65.4495 219.655 61.5876 221.101 62.7873 223.566C63.9869 226.031 68.5883 226.475 74.3894 226.475C79.3194 226.475 85.7778 226.13 87.6348 226.015C88.8016 225.637 91.0859 224.832 91.0859 224.372C91.0859 224.109 91.3159 221.742 91.6446 218.077L90.5928 217.962Z" fill="#3B2645"/>
<path d="M183.919 136.961C177.692 133.683 172.27 129.064 168.044 123.436C167.913 124.866 167.798 125.868 167.732 126.082C167.251 127.088 166.702 128.06 166.089 128.991C166.089 128.991 165.596 132.853 153.501 129.467C141.406 126.082 125.942 127.052 109.985 130.683C94.0276 134.315 85.5643 137.257 84.8412 142.532C84.8412 142.779 84.8412 143.091 84.7426 143.452C85.6735 144.81 86.6775 146.115 87.75 147.364C89.8554 149.723 92.4915 151.548 95.4409 152.688C96.1804 156.073 100.765 166.706 107.536 166.706C114.307 166.706 115.276 165.26 115.276 165.26C115.276 165.26 143.098 169.122 153.944 172.983C164.79 176.845 188.997 180.001 200.369 174.446C211.741 168.891 216.326 162.104 214.633 152.441C213.882 148.729 212.877 145.072 211.626 141.497C204.264 141.891 192.399 141.645 183.919 136.961Z" fill="#3B2645"/>
<path d="M167.748 126.082C167.267 127.088 166.718 128.06 166.105 128.991C166.105 128.991 165.612 132.853 153.517 129.468C141.421 126.082 125.958 127.052 110.001 130.684C94.0435 134.316 85.5803 137.257 84.8572 142.532C84.7093 143.601 84.5943 145.819 84.5121 148.662C87.6915 151.028 91.4861 152.426 95.4404 152.688C97.1702 149.701 99.6665 147.231 102.671 145.532C105.676 143.833 109.08 142.968 112.531 143.025C124.758 143.025 176.441 143.979 176.441 143.979L183.343 128.252C183.343 128.252 175.127 122.451 168.372 118.671C168.159 122.385 167.863 125.672 167.748 126.082Z" fill="#3B2645"/>
<path d="M209.653 127.348C210.278 124.669 222.603 110.503 223.836 105.573C225.068 100.643 229.587 85.6393 225.479 77.0117C221.371 68.3841 216.227 66.3299 216.227 66.3299C212.452 63.5553 208.344 61.2642 204 59.51C197.969 57.0943 188.043 59.0334 188.043 59.0334C183.957 58.3387 179.776 58.4168 175.718 59.2635C169.671 60.7261 166.532 64.588 165.316 71.6051C164.1 78.6222 159.745 87.4142 162.653 93.9876C165.562 100.561 168.208 105.606 168.455 110.914C168.573 115.98 168.337 121.049 167.748 126.082C167.267 127.088 166.718 128.06 166.105 128.991V129.09C167.896 132.787 172.004 140.593 176.523 143.978C180.766 144.109 184.845 145.64 188.125 148.333C193.056 152.688 199.021 153.641 205.545 153.641C208.641 153.518 211.705 152.965 214.649 151.998C213.006 143.387 209.21 137.389 209.473 127.89C209.569 127.723 209.63 127.539 209.653 127.348Z" fill="#AB8DA8"/>
<path d="M207.024 44.5061C207.024 44.5061 213.088 35.1883 214.058 27.218C215.027 19.2478 213.581 11.8198 204.872 7.15267C196.162 2.48554 183.344 7.15267 179.482 11.8198C175.62 16.4869 176.096 25.361 175.127 27.3002C174.157 29.2394 169.802 32.3782 170.295 33.5943C170.788 34.8103 173.927 36.4701 173.927 36.4701L175.571 43.9638C176.047 46.1495 177.493 49.0418 179.186 49.0418C181.487 48.8019 183.77 48.4177 186.022 47.8914C186.022 47.8914 186.499 55.4509 185.069 58.4911C183.146 62.5995 173.237 87.2169 177.592 89.7148C181.947 92.2127 200.369 72.8869 205.677 68.7785C210.985 64.6701 204.033 59.5921 204.033 59.5921C204.033 59.5921 201.651 59.4935 202.62 53.446C203.046 50.0569 204.597 46.9088 207.024 44.5061Z" fill="#FFEDE5"/>
<path d="M96.8868 243.352C101.965 243.352 107.766 241.413 108.242 239.244C108.637 237.502 107.486 232.391 106.993 228.907C105.993 229.266 104.948 229.487 103.887 229.565C101.293 229.654 98.697 229.411 96.1637 228.841C96.1063 227.841 95.861 226.859 95.4406 225.949C94.7175 224.306 91.1022 224.306 91.1022 224.306L87.1088 226.048H88.1934C88.1934 226.048 80.9462 230.633 76.0983 233.772C71.2504 236.91 66.6819 237.65 68.8511 241.035C71.0204 244.42 91.8088 243.352 96.8868 243.352Z" fill="#3B2645"/>
<path d="M217.181 28.8942C218.134 20.924 213.582 11.8198 204.872 7.15265C197.592 3.3072 187.469 5.9037 182.046 9.53551C183.13 9.73183 184.105 10.316 184.79 11.1789C188.29 15.0079 186.433 22.0086 189.572 25.1967C192.711 28.3848 194.338 27.4317 194.338 27.4317C194.338 27.4317 197.855 21.6963 199.432 27.4317C201.01 33.167 198.808 35.6484 197.214 36.3386C196.08 36.7656 194.908 37.0847 193.713 37.2918C193.713 37.2918 202.259 44.8348 207.025 44.5718C207.025 44.5061 216.211 36.8809 217.181 28.8942Z" fill="#3B2645"/>
<path d="M131.94 70.5202L130.494 69.5342L123.674 59.3126L129.113 48.3021L141.373 47.5133L142.835 48.4828L131.94 70.5202Z" fill="#393762"/>
<path d="M144.215 69.715L131.939 70.5203L125.136 60.2822L130.575 49.2717L142.835 48.4829L149.654 58.7046L144.215 69.715Z" fill="#636183"/>
<path d="M229.521 162.104C227.814 158.084 226.824 153.796 226.596 149.434C226.596 144.981 221.485 133.494 221.485 130.946C222.177 120.94 223.406 110.978 225.166 101.103C227.96 91.7031 227.73 81.5308 225.479 77.0115C223.227 72.4923 214.172 73.314 211.707 80.7091C209.242 88.1042 209.39 102.451 209.39 102.451C208.568 108.893 208.01 123.256 207.747 131.883C207.566 139.558 209.193 147.298 212.874 152.82C218.084 160.642 220.549 170.896 222.143 170.896C223.737 170.896 232.183 169.845 232.183 169.845C232.183 169.845 232.627 168.974 229.521 162.104Z" fill="#FFEDE5"/>
<path d="M234.075 178.226C234.075 178.226 235.718 169.319 235.356 167.396C234.995 165.474 229.621 166.772 227.386 166.772C225.151 166.772 223.574 166.443 223.886 167.725C224.198 169.007 228.668 169.368 228.668 169.368L230.311 169.993L234.075 178.226Z" fill="#FFEDE5"/>
<path d="M245.002 171.915H212.2V176.369H245.002V171.915Z" fill="#636183"/>
<path d="M257.097 162.055H242.767V185.621H257.097V162.055Z" fill="#636183"/>
<path d="M212.825 162.055H198.495V185.621H212.825V162.055Z" fill="#636183"/>
<path d="M218.248 168.415L220.039 177.157C220.157 177.741 220.481 178.264 220.951 178.629C221.422 178.994 222.008 179.177 222.603 179.146C224.838 179.014 228.305 178.817 230.343 178.604C233.531 178.291 234.485 179.244 234.813 176.96C234.961 175.81 235.208 173.674 235.421 171.866C235.464 171.47 235.421 171.07 235.295 170.692C235.17 170.314 234.964 169.968 234.693 169.676C234.422 169.385 234.091 169.155 233.724 169.003C233.356 168.85 232.96 168.779 232.562 168.793C230.08 168.793 226.958 168.99 226.202 168.99C224.937 169.056 220.795 165.555 218.248 168.415Z" fill="#FFEDE5"/>
<defs>
<linearGradient id="paint0_linear_1_1093" x1="389.115" y1="120.35" x2="-55.768" y2="106.533" gradientUnits="userSpaceOnUse">
<stop stop-color="#F77F00"/>
<stop offset="1" stop-color="#D62828"/>
</linearGradient>
</defs>
</svg>
