<svg width="121" height="82" viewBox="0 0 121 82" fill="none" xmlns="http://www.w3.org/2000/svg">
<g clip-path="url(#clip0_44_1226)">
<path d="M48.2296 31.5407C48.2296 31.5407 50.6937 11.6516 50.1374 4.38795C49.8521 0.662284 48.037 -0.180594 45.2627 0.0318962C42.4884 0.244386 26.6235 8.62005 26.6235 8.62005L28.8843 14.0385L42.0783 9.91624C42.0783 9.91624 40.734 17.6544 40.4237 19.1241C40.1135 20.5939 39.4645 22.5736 38.9474 24.3479C38.6942 25.2226 38.3412 26.3559 38.3412 26.9048C38.3483 28.201 48.2296 31.5407 48.2296 31.5407Z" fill="#FFEDE5"/>
<path d="M42.0782 9.91623C43.9183 9.56208 45.7547 8.48192 46.3324 7.62134C46.0357 8.58903 45.3808 9.40907 44.4995 9.91623C43.6608 10.4534 42.7724 10.9099 41.8464 11.2797L42.0782 9.91623Z" fill="#F28F8F"/>
<path d="M73.2056 31.1866C72.931 30.1738 71.1409 29.1078 65.8062 28.2189C60.4715 27.3299 55.6183 28.2189 55.5897 28.8457C55.5612 29.4726 56.9056 33.6622 63.0568 34.4271C69.2081 35.1921 73.769 33.4107 73.2056 31.1866Z" fill="#263238"/>
<path d="M57.1587 39.7958C57.1587 39.7958 53.6819 17.3993 54.1811 12.8272C54.6982 8.10284 56.5026 5.91065 59.5301 5.60254C63.4847 7.88327 65.5922 13.3336 68.1204 18.7061C70.6487 24.0786 73.3874 35.6026 73.5336 41.1097C73.6798 46.6167 69.2936 50.5407 64.3263 51.2561C59.3589 51.9715 57.1587 39.7958 57.1587 39.7958Z" fill="#FFEDE5"/>
<path d="M62.6217 22.2619C61.0173 20.981 59.9332 19.1672 59.5692 17.155L64.5438 15.4338L67.8993 18.2068L67.9992 18.4229C68.042 18.5149 68.0847 18.607 68.1311 18.6991C68.2274 18.9045 68.3237 19.1205 68.4199 19.3401C68.4449 19.4039 68.4734 19.4676 68.502 19.5349C68.5769 19.7049 68.6482 19.8891 68.7231 20.0661L68.7979 20.2503C68.8978 20.4946 68.9941 20.7461 69.0939 21.0046C69.1902 21.2632 69.2865 21.5288 69.3828 21.7979C69.4042 21.8581 69.4256 21.9148 69.4434 21.9715L69.7001 22.7152C69.7001 22.7506 69.7251 22.7895 69.7394 22.825C69.9391 23.427 70.1387 24.0503 70.3313 24.6878L70.3634 24.7905C70.4597 25.1057 70.5524 25.4244 70.6451 25.7467C70.6451 25.7467 66.0236 25.088 62.6217 22.2619Z" fill="#F28F8F"/>
<path d="M58.4817 5.79376C60.3717 5.05359 62.6717 6.78539 63.8877 7.56452C66.3589 9.13695 81.4679 20.831 84.991 23.5721C85.7541 24.0325 86.5315 24.4752 87.3232 24.8931L83.1724 31.3386C82.8315 30.4123 82.2982 29.5677 81.6069 28.8596C77.8413 26.1893 70.5525 24.7337 65.8597 22.9205C62.2082 21.5039 61.445 20.7106 60.2148 18.6388C59.2734 16.9991 55.875 7.01913 58.4817 5.79376Z" fill="#FFEDE5"/>
<path d="M57.0839 39.9197L55.5898 28.8455C55.5898 28.8455 56.9305 31.8982 63.8342 32.7022C70.7379 33.5061 73.3803 32.348 73.2056 31.1864C73.2056 31.1864 75.0099 38.1207 74.311 42.6255C73.6121 47.1302 66.6834 51.929 66.6834 51.929L57.0839 39.9197Z" fill="#37474F"/>
<path opacity="0.15" d="M60.1399 41.4356C59.5051 41.4356 58.9096 41.4745 58.3569 41.51L66.0308 51.0968H67.8138C69.8036 49.5279 73.7939 46.0006 74.3146 42.6362C74.8281 39.3319 73.9936 34.728 73.5122 32.5039C73.7868 35.0609 68.0278 41.2691 60.1399 41.4356Z" fill="black"/>
<path d="M94.7011 15.5224C92.205 15.062 91.046 16.8505 90.126 18.3273C89.206 19.8041 87.6655 22.5134 86.9773 22.9702C86.2891 23.4271 85.9075 22.9702 84.9269 23.7033C83.9462 24.4364 83.2295 25.8282 83.5326 26.3347L84.2458 27.5671C83.8346 27.5224 83.4185 27.5744 83.0314 27.719C82.6442 27.8636 82.2967 28.0966 82.017 28.3994C80.9473 29.4618 81.5035 29.6389 82.1062 30.2409C82.7088 30.843 84.1245 33.5629 85.5438 34.303C85.5438 34.303 89.3665 33.1662 92.1372 28.8597C94.908 24.5533 94.7011 15.5224 94.7011 15.5224Z" fill="url(#paint0_linear_44_1226)"/>
<path d="M86.3319 34.8731C86.1856 34.8473 86.0464 34.7915 85.9231 34.7093C85.7998 34.6271 85.695 34.5203 85.6155 34.3957C85.536 34.2711 85.4835 34.1315 85.4613 33.9856C85.4392 33.8397 85.4478 33.6909 85.4867 33.5486C85.9091 32.2206 86.5437 30.9686 87.366 29.8406C88.3252 28.4877 90.1225 25.9449 90.4256 24.5531C90.7287 23.1613 91.3813 19.2621 92.4475 17.6295C93.5137 15.9969 94.6085 15.0548 96.0134 15.5825C97.4184 16.1102 92.9824 26.5612 91.6808 28.3319C90.3792 30.1027 86.3319 34.8731 86.3319 34.8731Z" fill="#37474F"/>
<path d="M87.1519 34.6466C90.6643 32.7873 91.8197 30.9811 92.8574 28.626C93.8951 26.2709 96.32 24.1 96.9476 21.9857C97.5752 19.8714 97.6394 14.4494 95.2252 15.7633C92.8111 17.0772 92.3083 21.9255 91.2492 24.7268C90.1901 27.5282 83.7072 36.4775 87.1519 34.6466Z" fill="#263238"/>
<path d="M66.0415 40.3731C67.6462 40.1287 70.7308 40.7875 73.5301 44.6689C76.5362 48.8373 77.096 56.1115 75.2096 56.7101C75.2096 56.7101 70.8378 56.2001 67.8352 54.6383C64.8327 53.0765 59.7869 42.5263 66.0415 40.3731Z" fill="#263238"/>
<path d="M117.32 75.0799C112.663 73.2631 108.851 70.1395 105.552 66.6476C102.899 63.0706 91.531 47.7536 89.559 45.5969C88.8458 44.8319 87.1555 42.8628 84.8127 42.3705C76.5183 40.5998 61.1597 40.8619 61.1597 40.8619L55.2545 39.8738L43.4868 50.8737C45.1094 52.5913 47.1455 54.0894 50.1231 55.6299C53.1007 57.1705 56.3207 58.2896 60.6641 57.9248C69.3579 57.1953 74.5713 54.7552 79.2249 53.675C80.5728 53.3634 81.9706 53.0765 83.0297 55.2722C84.0888 57.468 84.1744 58.5694 87.3089 60.9032C91.3277 63.8994 97.964 67.2496 100.86 70.8195C101.336 71.6946 101.621 72.6602 101.694 73.6527C101.969 77.4173 105.149 76.6771 107.713 78.3133C109.111 79.2057 110.149 80.2894 111.832 80.6578C113.364 80.9709 114.948 80.9418 116.468 80.5728C117.837 80.2505 119.798 79.2695 120.472 77.945C121.357 76.1813 118.661 75.6005 117.32 75.0799Z" fill="#FFEDE5"/>
<path d="M117.32 75.0799C112.663 73.2631 108.851 70.1395 105.552 66.6476C102.899 63.0706 91.531 47.7536 89.559 45.5969C88.8458 44.8319 87.1555 42.8628 84.8127 42.3705C76.5183 40.5998 61.1597 40.8619 61.1597 40.8619L55.2545 39.8738L43.4868 50.8737C45.1094 52.5913 47.1455 54.0894 50.1231 55.6299C53.1007 57.1705 56.3207 58.2896 60.6641 57.9248C69.3579 57.1953 74.5713 54.7552 79.2249 53.675C80.5728 53.3634 81.9706 53.0765 83.0297 55.2722C84.0888 57.468 84.1744 58.5694 87.3089 60.9032C91.3277 63.8994 97.964 67.2496 100.86 70.8195C101.336 71.6946 101.621 72.6602 101.694 73.6527C101.969 77.4173 105.149 76.6771 107.713 78.3133C109.111 79.2057 110.149 80.2894 111.832 80.6578C113.364 80.9709 114.948 80.9418 116.468 80.5728C117.837 80.2505 119.798 79.2695 120.472 77.945C121.357 76.1813 118.661 75.6005 117.32 75.0799Z" fill="#FFEDE5"/>
<path d="M87.0414 59.1182C86.1585 58.1463 85.4883 57.0031 85.073 55.7608C84.7539 54.7224 84.3435 53.7139 83.8463 52.747C82.3985 50.268 72.7919 53.4305 68.5377 54.7267C68.2988 55.0809 67.3003 56.1433 66.9437 57.0287C72.0965 55.984 75.8051 54.4647 79.2177 53.6714C80.5656 53.3597 81.9635 53.0728 83.0226 55.2686C84.0817 57.4643 84.1673 58.5657 87.3017 60.8996C88.9349 62.1179 90.9996 63.3786 93.0714 64.7209C90.7571 62.9359 89.0134 61.1475 87.0414 59.1182Z" fill="#F28F8F"/>
<path d="M56.1674 39.8738C56.1674 39.8738 64.608 40.2846 66.0415 40.3873C66.0415 40.3873 62.8643 41.2373 66.7298 48.9967C70.5953 56.7561 75.2132 56.7136 75.2132 56.7136C69.151 58.6402 66.0023 60.8041 58.2749 59.901C49.064 58.58 43.4797 51.7307 43.4797 51.7307L56.1674 39.8738Z" fill="#455A64"/>
<path opacity="0.15" d="M75.1918 56.7136C75.1217 56.718 75.0514 56.718 74.9814 56.7136C74.2932 56.6357 72.2463 56.1894 69.9534 53.7635C68.1333 54.2457 66.2866 54.6229 64.4226 54.8932C57.5332 55.8955 52.3661 54.6878 44.6672 50.6116L43.4797 51.7236C46.5351 55.1456 50.4546 57.6959 54.8337 59.1112C55.1012 59.1926 55.3758 59.2741 55.6539 59.3485C55.9142 59.4158 56.1781 59.483 56.442 59.5432L56.5133 59.5609C56.7558 59.6176 57.0054 59.6672 57.255 59.7168L57.387 59.7416C57.6794 59.7982 57.9718 59.8478 58.2713 59.8903C58.7563 59.947 59.2199 59.9895 59.6692 60.0249C60.1185 60.0603 60.55 60.078 60.9707 60.0922H61.5877C61.7909 60.0922 61.9906 60.0922 62.1867 60.0922C62.7751 60.0922 63.335 60.0461 63.8734 59.993C64.23 59.9576 64.5795 59.9151 64.9218 59.8655C65.7463 59.7415 66.563 59.5712 67.3681 59.3555C67.6819 59.2705 67.9921 59.182 68.2988 59.0864C69.0726 58.8526 69.8357 58.5906 70.6202 58.3073L71.5723 57.9531C72.6992 57.5423 73.8831 57.1102 75.2096 56.6888L75.1918 56.7136Z" fill="black"/>
<path d="M27.9428 29.3094C24.5123 30.4923 21.2709 32.5605 24.0202 38.613C27.9428 47.3534 45.7226 57.0571 54.8515 59.1183C50.2157 52.1521 54.0741 44.7681 57.1016 39.9198L56.285 33.9984C56.285 33.9984 53.5463 32.6916 49.0104 29.2103C44.4745 25.729 42.5917 24.7834 35.8413 26.8233C31.202 28.2257 27.9428 29.3094 27.9428 29.3094Z" fill="url(#paint1_linear_44_1226)"/>
<path opacity="0.05" d="M41.8394 49.064C32.5037 43.7518 29.5689 39.0203 25.9067 34.4766L23.5104 37.3806C23.5746 37.5683 23.6459 37.7595 23.7243 37.9579C23.723 37.9684 23.723 37.9792 23.7243 37.9897C23.8028 38.1916 23.8919 38.4005 23.9882 38.613C25.7284 42.4379 30.0967 46.4468 35.2317 49.9352C35.9449 50.431 36.7151 50.9162 37.4711 51.3872C37.8527 51.6245 38.2342 51.8583 38.6193 52.0955C41.2308 53.6484 43.9339 55.0439 46.7141 56.2745C49.3224 57.4704 52.0387 58.419 54.8266 59.1077C53.8112 57.609 53.1326 55.9107 52.8368 54.1284C49.5918 53.158 46.1114 51.497 41.8394 49.064Z" fill="black"/>
<path d="M25.3682 30.4957C25.3682 30.4957 13.8537 24.3831 12.0315 23.5579L22.1089 17.6826L19.9694 12.1685C19.9694 12.1685 4.99234 17.4559 2.13957 18.9752C0.645438 19.7792 0 20.4414 0 21.5818C0 23.4836 1.8222 25.9485 4.3469 28.084C9.71366 32.6277 16.9953 36.8598 24.088 40.7272C25.7141 41.9242 27.4044 43.4293 27.4044 43.4293C29.2694 44.3572 31.9831 35.7938 25.3682 30.4957Z" fill="#FFEDE5"/>
<path d="M36.1482 9.25037C35.4289 7.59209 34.0759 6.2855 32.3866 5.61802C30.6974 4.95053 28.8103 4.97684 27.1406 5.69115C25.4709 6.40547 24.1552 7.74927 23.4832 9.42694C22.8111 11.1046 22.8376 12.9787 23.5568 14.637C23.6032 14.7503 23.6602 14.853 23.7137 14.9593L21.9735 18.7204L19.4025 14.0137C19.4035 13.643 19.2658 13.2851 19.016 13.0095C18.7663 12.734 18.4223 12.5605 18.051 12.5227C17.8626 12.5068 17.673 12.529 17.4936 12.5881C17.3142 12.6472 17.1488 12.7419 17.0074 12.8664C16.8659 12.9909 16.7515 13.1427 16.671 13.3126C16.5905 13.4824 16.5456 13.6667 16.539 13.8543L18.5038 14.0243C18.0727 14.3083 17.7422 14.7196 17.5589 15.2001C17.0917 16.4113 18.7178 18.8797 20.8966 21.0471C20.8966 21.0471 23.9811 25.3713 24.73 25.9769C25.2125 26.3416 25.8174 26.5089 26.4203 26.4444L26.6057 17.9448C27.8582 18.6161 29.2901 18.8833 30.7025 18.7093C32.1149 18.5353 33.4377 17.9287 34.487 16.9738C35.5364 16.0189 36.2602 14.7631 36.5579 13.3809C36.8556 11.9987 36.7124 10.5587 36.1482 9.26099V9.25037Z" fill="#263238"/>
<path d="M23.4889 20.1865C23.2036 20.5796 22.3335 20.0802 21.6453 19.7898C20.9571 19.4994 19.1135 19.4888 19.0421 21.4402C18.9708 23.3915 21.385 24.9817 22.7721 24.8365C25.1613 24.5921 24.9117 23.1153 24.9117 23.1153L28.4206 30.8322C32.4822 33.0421 40.042 29.5644 35.5061 27.3793L34.5041 25.0879C35.3711 24.8566 36.2086 24.5274 37.0003 24.1069C38.4267 23.2074 38.8938 21.5783 38.6406 19.7119C38.2377 16.7193 37.5708 14.4386 34.6681 9.44155C31.4588 3.98055 24.6835 6.80667 22.0375 10.6421C19.3916 14.4776 23.4889 20.1865 23.4889 20.1865Z" fill="#FFEDE5"/>
<path d="M23.7707 20.8417C23.5781 20.9302 22.3122 20.0307 21.6311 19.8005C20.7075 19.4853 19.2062 13.6807 19.2062 13.6807C19.2062 13.6807 17.9795 12.6006 18.6535 10.6528C19.2062 9.05553 21.246 7.986 22.6581 7.2777C25.2042 5.99921 28.0534 4.54366 29.3014 1.86628C29.4013 1.65379 29.5439 1.41297 29.7793 1.40942C29.8524 1.4159 29.9235 1.43677 29.9884 1.47082C30.0533 1.50487 30.1107 1.55142 30.1573 1.60775C30.7452 2.26321 31.0767 3.10643 31.0916 3.9841C31.0916 4.06555 31.1165 4.16826 31.1985 4.19305C31.2806 4.21784 31.3412 4.15055 31.3911 4.09034C31.65 3.77541 31.8472 3.41502 31.9724 3.02789C32.1435 2.50021 33.0421 3.84244 33.1063 4.0266C33.3166 4.60922 33.4072 5.22776 33.3729 5.84574C33.3386 6.46372 33.1801 7.06861 32.9066 7.62476C32.3503 8.73326 31.2057 9.42031 30.1573 10.0259C27.8216 11.3788 23.8277 12.6679 23.2714 12.8202C22.5154 13.0291 22.6616 13.7834 23.0896 15.8269C23.4818 17.6331 24.4161 20.5406 23.7707 20.8417Z" fill="#263238"/>
<path d="M34.5042 25.088C34.5042 25.088 30.332 25.9627 28.8486 25.8529C27.9783 25.7902 27.1477 25.4666 26.4666 24.925C26.9507 25.5494 27.5572 26.0699 28.2495 26.455C29.6189 27.1987 34.8965 26.0123 34.8965 26.0123L34.5042 25.088Z" fill="#F28F8F"/>
<path d="M27.9856 14.3039L26.7447 15.6497C26.5659 15.477 26.4612 15.2424 26.4526 14.9949C26.444 14.7474 26.532 14.5062 26.6983 14.3216C26.7808 14.2351 26.88 14.1659 26.9899 14.118C27.0998 14.0702 27.2182 14.0447 27.3382 14.0431C27.4582 14.0414 27.5773 14.0636 27.6885 14.1084C27.7997 14.1532 27.9007 14.2197 27.9856 14.3039Z" fill="#263238"/>
<path d="M31.9831 21.178L33.8196 21.093C33.8308 21.213 33.8175 21.334 33.7806 21.4488C33.7436 21.5635 33.6837 21.6697 33.6045 21.761C33.5252 21.8522 33.4283 21.9267 33.3194 21.9798C33.2106 22.033 33.092 22.0638 32.9709 22.0705C32.722 22.0774 32.4801 21.9884 32.2959 21.822C32.1117 21.6555 31.9996 21.4248 31.9831 21.178Z" fill="#F28F8F"/>
<path d="M35.5384 12.1686L33.7554 11.7153C33.7796 11.5973 33.8277 11.4855 33.8968 11.3866C33.9658 11.2877 34.0544 11.2037 34.1571 11.1398C34.2598 11.0759 34.3745 11.0334 34.4942 11.0148C34.614 10.9962 34.7363 11.002 34.8537 11.0318C35.0921 11.0991 35.2957 11.2542 35.4229 11.4654C35.5501 11.6767 35.5914 11.9281 35.5384 12.1686Z" fill="#263238"/>
<path d="M31.7334 14.9417L32.9494 19.2871L35.089 17.998L31.7334 14.9417Z" fill="#F28F8F"/>
<path d="M28.3493 16.8894C28.35 17.0461 28.3975 17.1991 28.4857 17.3291C28.5739 17.4591 28.6989 17.5602 28.8449 17.6197C28.9909 17.6792 29.1514 17.6945 29.3061 17.6634C29.4608 17.6324 29.6028 17.5566 29.7142 17.4455C29.8255 17.3344 29.9013 17.1931 29.9318 17.0393C29.9623 16.8855 29.9463 16.7262 29.8857 16.5814C29.8252 16.4367 29.7228 16.313 29.5915 16.226C29.4602 16.139 29.3059 16.0925 29.1481 16.0925C29.0429 16.0925 28.9388 16.1132 28.8416 16.1533C28.7445 16.1933 28.6563 16.2521 28.582 16.3261C28.5078 16.4002 28.4491 16.488 28.4091 16.5847C28.3692 16.6814 28.3489 16.7849 28.3493 16.8894Z" fill="#263238"/>
<path d="M34.1298 14.6405C34.1291 14.7928 34.1739 14.9418 34.2587 15.0687C34.3435 15.1957 34.4643 15.2947 34.6058 15.3533C34.7473 15.4119 34.9032 15.4274 35.0537 15.3979C35.2041 15.3684 35.3423 15.2951 35.4507 15.1874C35.5592 15.0797 35.633 14.9425 35.6627 14.7931C35.6924 14.6437 35.6768 14.4888 35.6178 14.3483C35.5588 14.2077 35.4591 14.0877 35.3313 14.0035C35.2035 13.9194 35.0534 13.8748 34.9 13.8755C34.696 13.8764 34.5007 13.9573 34.3564 14.1006C34.2122 14.2438 34.1307 14.4379 34.1298 14.6405Z" fill="#263238"/>
<path d="M101.23 74.4424C100.927 74.6478 101.398 75.944 101.673 76.2627C102.245 76.8149 102.951 77.2103 103.723 77.4102C105.127 77.8372 106.439 78.5193 107.592 79.4217C109.014 80.5654 110.669 81.3905 112.442 81.8406C114.546 82.3045 116.978 81.7131 119.099 80.4629C121.325 79.1561 121.118 77.9024 120.815 77.0666L101.23 74.4424Z" fill="#37474F"/>
<path d="M106.044 67.168C106.758 67.9188 110.637 71.7294 113.615 72.6998C115.986 73.4718 119.071 74.2085 120.422 75.6428C121.827 77.1373 119.734 79.0497 116.856 80.1476C113.854 81.288 111.814 80.3672 109.821 79.372C108.419 78.6637 106.355 77.2471 105.317 76.6769C104.279 76.1067 102.357 75.7951 101.555 74.9487C101.113 74.4812 100.795 73.1779 100.603 72.034C100.428 70.9715 99.7219 70.0118 100.082 69.9551L100.667 70.5891C103.377 71.0849 106.201 68.5987 106.044 67.168Z" fill="url(#paint2_linear_44_1226)"/>
<path d="M12.0316 23.5581C10.3227 24.4749 8.47722 25.1146 6.565 25.4528C6.565 25.4528 9.5925 26.2071 13.1941 24.1354L12.0316 23.5581Z" fill="#F28F8F"/>
</g>
<defs>
<linearGradient id="paint0_linear_44_1226" x1="79.8845" y1="25.8186" x2="96.8404" y2="26.0984" gradientUnits="userSpaceOnUse">
<stop stop-color="#F77F00"/>
<stop offset="1" stop-color="#D62828"/>
</linearGradient>
<linearGradient id="paint1_linear_44_1226" x1="19.0675" y1="44.1067" x2="62.5697" y2="45.1479" gradientUnits="userSpaceOnUse">
<stop stop-color="#F77F00"/>
<stop offset="1" stop-color="#D62828"/>
</linearGradient>
<linearGradient id="paint2_linear_44_1226" x1="97.5801" y1="74.5966" x2="124.199" y2="75.5602" gradientUnits="userSpaceOnUse">
<stop stop-color="#F77F00"/>
<stop offset="1" stop-color="#D62828"/>
</linearGradient>
<clipPath id="clip0_44_1226">
<rect width="121" height="82" fill="white"/>
</clipPath>
</defs>
</svg>
