<svg width="50" height="50" viewBox="0 0 50 50" fill="none" xmlns="http://www.w3.org/2000/svg">
<mask id="mask0_44_1339" style="mask-type:alpha" maskUnits="userSpaceOnUse" x="0" y="0" width="50" height="50">
<circle cx="25" cy="25" r="25" fill="#C4C4C4"/>
</mask>
<g mask="url(#mask0_44_1339)">
<path d="M33.0843 15.2443C33.0843 15.2443 33.0843 15.4051 33.0602 15.6786C32.9838 16.8489 32.7224 20.1427 32.1231 22.0169C31.9542 22.5397 31.4274 23.7744 30.808 25.1739C29.8991 27.2733 28.7891 29.6863 28.3668 30.7521C28.2301 31.098 26.9029 30.4424 26.549 30.3781C25.6562 30.2051 25.5476 28.6125 25.8371 27.2733C25.9309 26.8045 26.1021 26.3546 26.3439 25.9421L26.4203 25.8255L26.4726 25.749C26.9632 25.0332 27.7636 24.1082 28.4834 23.2676C29.0161 22.6865 29.4891 22.0532 29.8951 21.3774C30.2973 20.5208 31.5882 15.3931 31.5882 15.3931C32.1955 14.7335 33.0843 15.2443 33.0843 15.2443Z" fill="#FFEDE5"/>
<path d="M33.2533 14.6895C33.2091 14.8825 33.1729 15.0675 33.1447 15.2163C33.0924 15.4898 33.0683 15.6708 33.0683 15.6708C32.6179 16.1413 31.7411 15.6708 31.7411 15.6708C31.6814 15.5903 31.6276 15.5057 31.5802 15.4174C31.3386 15.0021 31.2424 14.5181 31.3068 14.042C31.3711 13.676 31.4355 12.8354 31.4355 12.8354H31.5963C31.7652 12.8354 31.8175 13.3583 31.8296 13.6036C31.8327 13.637 31.8327 13.6707 31.8296 13.7041C31.8389 13.6609 31.8566 13.6198 31.8819 13.5835C31.9354 13.5187 32.0043 13.4682 32.0822 13.4366C32.1601 13.405 32.2447 13.3933 32.3283 13.4025C32.5334 13.4025 32.7305 13.4025 32.9396 13.4025C33.0338 13.4005 33.1273 13.4197 33.2131 13.4588C33.2437 13.4714 33.2712 13.4907 33.2935 13.5151C33.563 13.7886 33.3257 14.4039 33.2533 14.6895Z" fill="#FFEDE5"/>
<path d="M33.2532 14.6893C33.209 14.8823 33.1728 15.0673 33.1446 15.2161C33.1131 15.1681 33.0781 15.1224 33.0401 15.0794C32.8626 14.9072 32.6537 14.7706 32.4247 14.6772C32.1673 14.5405 31.4595 14.1383 31.6767 13.7321C31.7135 13.6767 31.7671 13.6344 31.8295 13.6115L31.8898 13.5913C32.2227 13.5412 32.5587 13.5143 32.8953 13.5109C33.0039 13.5109 33.1124 13.4747 33.221 13.4626C33.2511 13.4762 33.2784 13.4953 33.3015 13.519C33.5629 13.7884 33.3256 14.4037 33.2532 14.6893Z" fill="#E0855C"/>
<path d="M27.112 22.2663C27.244 21.5101 27.4295 20.7642 27.667 20.0342C27.6964 19.9556 27.7052 19.8708 27.6925 19.7878C27.6798 19.7048 27.646 19.6265 27.5943 19.5603C27.5427 19.4941 27.4749 19.4423 27.3975 19.4098C27.3201 19.3773 27.2356 19.3652 27.1522 19.3747C26.9803 19.4048 26.8128 19.4561 26.6535 19.5275C26.6535 19.5275 27.0557 18.3692 26.4886 17.9872C25.9216 17.6051 25.081 18.3371 24.7553 18.884C24.8183 18.7671 24.836 18.6309 24.8048 18.5018C24.7736 18.3726 24.6958 18.2595 24.5864 18.1842C24.1842 17.9268 22.3865 19.9096 22.7404 21.5384C23.0943 23.1672 23.2431 22.7087 23.2431 22.7087C23.2431 22.7087 26.9994 22.4754 27.112 22.2663Z" fill="#3B2645"/>
<path d="M23.1426 22.0049C23.1027 21.9501 23.0504 21.9054 22.9899 21.8747C22.9294 21.8439 22.8626 21.8279 22.7947 21.8279C22.7269 21.8279 22.66 21.8439 22.5996 21.8747C22.5391 21.9054 22.4868 21.9501 22.4469 22.0049C22.097 22.4071 22.6922 23.2114 23.1426 23.2597C23.1691 22.8418 23.1691 22.4228 23.1426 22.0049Z" fill="#E0855C"/>
<path d="M29.6296 26.8712C29.0958 28.1322 28.6733 29.4376 28.3668 30.7723C28.3427 30.9009 28.3186 31.0216 28.2985 31.1382C28.1657 31.9426 27.7636 35.908 27.6992 36.5314C27.6992 36.5837 27.6992 36.6118 27.6992 36.6118C24.5502 37.4805 21.2644 36.6118 21.2644 36.6118C21.2644 36.6118 21.2644 36.5515 21.2644 36.4349C21.192 35.6627 20.8824 32.4574 20.6974 29.6864C20.6008 28.2707 20.5405 26.9717 20.5566 26.1633C20.5566 25.8657 21.2483 25.8979 21.7229 25.8295C22.2925 25.7564 22.8659 25.7161 23.4402 25.7089H23.6171L23.6574 25.2464L23.6895 24.9367L23.766 24.1082C23.8182 24.1082 23.8705 24.1283 23.9228 24.1324C24.0237 24.1509 24.1259 24.1616 24.2285 24.1645C24.3529 24.1747 24.478 24.1747 24.6025 24.1645L24.7794 24.1444C24.8578 24.1366 24.9357 24.1245 25.0127 24.1082C25.1414 24.0801 25.2661 24.0439 25.3827 24.0077L25.4873 23.9715H25.5154L25.5958 23.9393C25.7459 23.8796 25.8911 23.8083 26.0302 23.7262C26.1066 23.6819 26.171 23.6377 26.2232 23.6015L26.2594 23.5774L26.3278 23.5251C26.3469 23.5157 26.3634 23.5019 26.3761 23.4849C26.3761 23.5452 26.3761 23.5693 26.3761 23.5975C26.3399 23.8589 26.3037 24.1967 26.2876 24.5345C26.2876 24.7638 26.2635 24.993 26.2554 25.1941C26.2554 25.5359 26.2554 25.7853 26.2554 25.7853C26.3304 25.7813 26.4056 25.7813 26.4806 25.7853C26.4843 25.7832 26.4885 25.7821 26.4927 25.7821C26.4969 25.7821 26.5011 25.7832 26.5048 25.7853C26.8327 25.8006 27.1592 25.8383 27.482 25.8979C28.2234 26.0311 28.9362 26.291 29.5894 26.6661C29.6188 26.6903 29.6389 26.724 29.6462 26.7614C29.6535 26.7988 29.6477 26.8376 29.6296 26.8712Z" fill="#FFEDE5"/>
<path d="M26.368 23.4487C26.3145 23.7369 26.1974 24.0096 26.0254 24.2469C25.8534 24.4842 25.6307 24.6803 25.3735 24.8208C25.1162 24.9614 24.8309 25.0429 24.5383 25.0595C24.2456 25.076 23.953 25.0273 23.6815 24.9167L23.7579 24.0882C24.2134 24.176 24.6824 24.1644 25.1329 24.054C25.5835 23.9436 26.0048 23.7372 26.368 23.4487Z" fill="#E0855C"/>
<path d="M23.2431 20.7983C23.0099 21.0356 22.9938 21.5785 22.9737 22.1737C22.9133 23.9795 23.4563 24.5466 24.3773 24.6431C25.2982 24.7396 26.2675 24.3897 26.4645 22.7127C26.5651 21.8761 26.6696 21.104 26.368 20.738C25.8935 20.1991 23.9308 20.0583 23.2431 20.7983Z" fill="#FFEDE5"/>
<path d="M26.3158 22.4715C26.3158 22.4715 26.6013 21.7235 27.0437 22.1216C27.4861 22.5198 26.8628 23.6539 26.1951 23.5654C26.1951 23.5654 26.0986 22.7289 26.3158 22.4715Z" fill="#FFEDE5"/>
<path d="M26.8386 22.4472C26.7345 22.4833 26.6407 22.544 26.5651 22.6241C26.4831 22.6945 26.416 22.7807 26.368 22.8775C26.368 22.9097 26.3962 22.9258 26.4203 22.9097C26.4445 22.8936 26.5209 22.789 26.5772 22.7327C26.6114 22.7771 26.6555 22.8129 26.7059 22.8373C26.7151 22.8388 26.7246 22.8378 26.7333 22.8343C26.7421 22.8309 26.7497 22.8252 26.7555 22.8178C26.7612 22.8104 26.7649 22.8016 26.7661 22.7923C26.7672 22.7829 26.7659 22.7735 26.7622 22.7649C26.7342 22.7235 26.697 22.6891 26.6536 22.6644C26.7287 22.6149 26.8 22.5598 26.8667 22.4995C26.8707 22.4945 26.8732 22.4885 26.8738 22.4822C26.8744 22.4759 26.8731 22.4695 26.8701 22.4639C26.8671 22.4584 26.8625 22.4538 26.8569 22.4508C26.8513 22.4478 26.8449 22.4466 26.8386 22.4472Z" fill="#E0855C"/>
<path d="M23.7459 22.1297C23.7459 22.1297 23.5891 22.19 23.6132 21.9125C23.6373 21.635 23.7459 21.6993 23.7459 21.6993C23.7459 21.6993 23.8545 21.6993 23.8384 21.9165C23.8223 22.1337 23.7459 22.1297 23.7459 22.1297Z" fill="#3B2645"/>
<path d="M25.3304 22.1297C25.3304 22.1297 25.1736 22.19 25.1977 21.9125C25.2218 21.635 25.3304 21.6993 25.3304 21.6993C25.3304 21.6993 25.439 21.6993 25.4229 21.9165C25.4068 22.1337 25.3304 22.1297 25.3304 22.1297Z" fill="#3B2645"/>
<path d="M24.4497 22.8696C24.3733 22.8696 24.1923 22.9018 24.1521 22.8173C24.1677 22.6256 24.2069 22.4365 24.2687 22.2543C24.343 22.0085 24.4035 21.7588 24.4497 21.5063C24.4497 21.5063 24.4497 21.4861 24.4216 21.5063C24.2626 21.9437 24.1375 22.3928 24.0475 22.8495C24.0464 22.8551 24.0464 22.8609 24.0477 22.8664C24.0489 22.872 24.0513 22.8772 24.0547 22.8818C24.0582 22.8864 24.0625 22.8902 24.0675 22.8929C24.0725 22.8957 24.078 22.8973 24.0837 22.8978C24.2004 22.8978 24.313 22.9219 24.4296 22.9219C24.4859 22.938 24.498 22.8736 24.4497 22.8696Z" fill="#E0855C"/>
<path d="M23.9188 21.2931C23.8061 21.2328 23.597 21.2207 23.5166 21.3373C23.5137 21.3422 23.5123 21.3478 23.5123 21.3535C23.5123 21.3592 23.5138 21.3647 23.5167 21.3696C23.5195 21.3745 23.5236 21.3786 23.5285 21.3814C23.5335 21.3842 23.5391 21.3856 23.5447 21.3856C23.601 21.3856 23.6493 21.3574 23.7056 21.3534C23.7646 21.3506 23.8235 21.3602 23.8785 21.3816C23.9308 21.3977 23.967 21.3172 23.9188 21.2931Z" fill="#3B2645"/>
<path d="M25.5637 21.4299C25.4993 21.269 25.2218 21.2529 25.1052 21.3534C25.0984 21.3567 25.0927 21.3619 25.0887 21.3683C25.0846 21.3747 25.0825 21.3821 25.0825 21.3896C25.0825 21.3972 25.0846 21.4046 25.0887 21.411C25.0927 21.4174 25.0984 21.4225 25.1052 21.4258C25.1736 21.45 25.246 21.4258 25.3184 21.4258C25.3768 21.4352 25.4337 21.4528 25.4873 21.4781C25.5396 21.4942 25.5758 21.458 25.5637 21.4299Z" fill="#3B2645"/>
<path d="M24.0475 23.4287C24.3928 23.474 24.7438 23.4122 25.0529 23.2517C25.0066 23.3586 24.9388 23.4549 24.8537 23.5344C24.7686 23.614 24.668 23.6752 24.5582 23.7142C24.2084 23.8188 24.0475 23.4287 24.0475 23.4287Z" fill="white"/>
<path d="M23.4 30.3781C23.0541 30.4425 21.4656 30.6194 21.184 30.3781C20.982 30.1765 20.8148 29.9428 20.6894 29.6864C20.0452 28.3296 19.4825 26.9356 19.0042 25.5118C18.4653 23.9916 18.0069 22.5759 17.8339 22.037C17.2106 20.1428 16.9693 16.845 16.8928 15.6746C16.8727 15.4012 16.8647 15.2443 16.8647 15.2443C16.8647 15.2443 17.7454 14.7456 18.3728 15.4012C18.3728 15.4012 19.6839 20.5329 20.07 21.3895C20.3942 21.9478 20.7757 22.4707 21.2082 22.95C21.9522 23.8428 22.8691 24.8884 23.4322 25.6888L23.5367 25.8376L23.6132 25.9542C23.9677 26.5972 24.179 27.3092 24.2325 28.0415C24.3371 29.1515 24.132 30.2374 23.4 30.3781Z" fill="#FFEDE5"/>
<path d="M18.3728 15.4012C18.3254 15.4894 18.2717 15.5741 18.2119 15.6545C18.2119 15.6545 17.3392 16.1372 16.8928 15.6747C16.8928 15.6747 16.8727 15.55 16.8365 15.3569C16.8003 15.1639 16.7601 14.9548 16.6998 14.6893C16.6515 14.4963 16.3378 13.7281 16.4987 13.5914C16.5372 13.5654 16.5813 13.5488 16.6274 13.5431L17.1663 13.4466C17.476 13.3903 17.9948 13.3059 18.1194 13.696C18.1194 13.4707 18.1194 12.9399 18.3527 12.8232H18.5216C18.5216 12.8232 18.5819 13.6477 18.6463 14.0298C18.7097 14.5046 18.6135 14.987 18.3728 15.4012Z" fill="#FFEDE5"/>
<path d="M20.6491 37.3277C20.6491 37.3277 18.9841 41.82 18.9158 50.3179C18.9158 50.9936 17.6007 55.6709 18.1114 62.2062L20.07 62.5762C20.07 62.5762 21.9683 55.6749 22.0527 50.9654C22.0527 50.9654 24.4658 42.6083 24.6307 38.7635C24.7956 34.9187 22.2377 33.672 20.6491 37.3277Z" fill="#FFEDE5"/>
<path d="M28.2381 37.3277C28.2381 37.3277 29.9031 41.82 29.9675 50.3179C29.9675 50.9936 31.2866 55.6709 30.7718 62.2062L28.8132 62.5762C28.8132 62.5762 26.919 55.6749 26.8305 50.9654C26.8305 50.9654 24.4175 42.6083 24.2526 38.7635C24.0877 34.9187 26.6495 33.672 28.2381 37.3277Z" fill="#FFEDE5"/>
<path d="M30.808 25.174C29.8991 27.2733 28.7931 29.6864 28.3668 30.7521C28.3427 30.8808 28.3186 31.0015 28.2985 31.1181C28.1657 31.9225 27.7636 35.8879 27.6992 36.5113C26.6093 36.8451 24.3934 37.2392 21.2644 36.4147C21.1921 35.6426 20.8824 32.4372 20.6974 29.6663C20.0532 28.3095 19.4905 26.9155 19.0123 25.4917C19.7643 25.0171 20.818 24.1685 21.2162 22.95C21.9602 23.8428 22.8772 24.8884 23.4402 25.6888H23.5206C23.5206 25.733 23.5206 25.7853 23.5448 25.8376C23.6452 26.6074 23.8807 27.3535 24.2405 28.0415C24.2926 28.1374 24.3662 28.22 24.4555 28.2828C24.5448 28.3456 24.6474 28.3869 24.7553 28.4034C25.1575 28.4034 25.5395 27.8967 25.8452 27.2854C26.0744 26.8175 26.2693 26.3337 26.4284 25.8376L26.4565 25.7611C26.4602 25.759 26.4643 25.7579 26.4686 25.7579C26.4728 25.7579 26.477 25.759 26.4806 25.7611C26.9713 25.0453 27.7716 24.1203 28.4915 23.2797C28.8736 23.8267 29.7905 24.9206 30.808 25.174Z" fill="#E8CEE5"/>
<path d="M30.056 46.4851C28.9996 47.0354 27.8077 47.2712 26.6214 47.1648C26.2035 47.1293 25.7951 47.0203 25.4149 46.8431L24.4497 41.4539L23.5126 46.8431C21.4776 47.5791 18.6865 46.2358 18.6865 46.2358C19.5753 37.5207 21.2323 36.2136 21.2323 36.2136C23.963 37.1024 27.7234 36.2418 27.7234 36.2418C29.6498 38.8278 30.056 46.4851 30.056 46.4851Z" fill="#3B2645"/>
<path d="M16.8727 15.3368H16.8365C16.8044 15.1639 16.7601 14.9346 16.6998 14.6692C16.6515 14.4762 16.3419 13.712 16.4987 13.5713C16.5375 13.5459 16.5815 13.5294 16.6274 13.523L17.1663 13.4265C17.3946 13.3683 17.6338 13.3683 17.8621 13.4265C17.9706 13.4769 18.0614 13.5586 18.1231 13.6611C18.1847 13.7636 18.2143 13.8822 18.208 14.0016C18.208 14.7255 17.0618 15.2363 16.8727 15.3368Z" fill="#E0855C"/>
<path d="M38.4493 13.7925H10.2328C10.1686 13.7845 10.1094 13.7533 10.0665 13.7048C10.0237 13.6563 10 13.5938 10 13.529C10 13.4643 10.0237 13.4018 10.0665 13.3533C10.1094 13.3047 10.1686 13.2736 10.2328 13.2656H38.4493C38.5136 13.2736 38.5727 13.3047 38.6156 13.3533C38.6585 13.4018 38.6822 13.4643 38.6822 13.529C38.6822 13.5938 38.6585 13.6563 38.6156 13.7048C38.5727 13.7533 38.5136 13.7845 38.4493 13.7925Z" fill="#3B2645"/>
<path d="M11.1297 14.8784C11.0109 14.8784 10.897 14.8315 10.8126 14.7479C10.7282 14.6643 10.6803 14.5507 10.6793 14.432V12.6262C10.6793 12.5068 10.7267 12.3922 10.8112 12.3077C10.8957 12.2232 11.0102 12.1758 11.1297 12.1758C11.2492 12.1758 11.3637 12.2232 11.4482 12.3077C11.5327 12.3922 11.5801 12.5068 11.5801 12.6262V14.432C11.5801 14.4909 11.5685 14.5493 11.5458 14.6037C11.5231 14.6582 11.4898 14.7076 11.448 14.7491C11.4061 14.7906 11.3564 14.8234 11.3018 14.8456C11.2471 14.8678 11.1887 14.8789 11.1297 14.8784Z" fill="#3B2645"/>
<path d="M12.0225 16.4549C11.9052 16.4549 11.7927 16.4083 11.7097 16.3253C11.6267 16.2424 11.5801 16.1298 11.5801 16.0125V11.0497C11.5801 10.9313 11.6272 10.8177 11.7109 10.734C11.7946 10.6503 11.9082 10.6033 12.0266 10.6033C12.1449 10.6033 12.2585 10.6503 12.3422 10.734C12.4259 10.8177 12.473 10.9313 12.473 11.0497V16.0125C12.4724 16.0711 12.4604 16.1291 12.4374 16.183C12.4145 16.237 12.3812 16.2859 12.3394 16.327C12.2975 16.3681 12.248 16.4005 12.1937 16.4225C12.1393 16.4444 12.0812 16.4554 12.0225 16.4549Z" fill="#291B30"/>
<path d="M12.9153 17.219C12.797 17.219 12.6834 17.172 12.5997 17.0883C12.516 17.0046 12.4689 16.891 12.4689 16.7726V10.4464C12.4689 10.328 12.516 10.2145 12.5997 10.1308C12.6834 10.047 12.797 10 12.9153 10C13.0337 10 13.1473 10.047 13.231 10.1308C13.3147 10.2145 13.3618 10.328 13.3618 10.4464V16.7605C13.3634 16.8202 13.353 16.8795 13.3313 16.9351C13.3096 16.9906 13.277 17.0413 13.2354 17.084C13.1937 17.1268 13.144 17.1607 13.089 17.1839C13.0341 17.2071 12.975 17.219 12.9153 17.219Z" fill="#3B2645"/>
<path d="M37.1624 14.8783C37.2808 14.8783 37.3944 14.8312 37.4781 14.7475C37.5618 14.6638 37.6088 14.5503 37.6088 14.4319V12.6261C37.6088 12.5675 37.5973 12.5094 37.5748 12.4553C37.5524 12.4011 37.5195 12.3519 37.4781 12.3104C37.4366 12.269 37.3874 12.2361 37.3333 12.2137C37.2791 12.1912 37.221 12.1797 37.1624 12.1797C37.1038 12.1797 37.0457 12.1912 36.9916 12.2137C36.9374 12.2361 36.8882 12.269 36.8468 12.3104C36.8053 12.3519 36.7724 12.4011 36.75 12.4553C36.7276 12.5094 36.716 12.5675 36.716 12.6261V14.4319C36.716 14.5503 36.763 14.6638 36.8468 14.7475C36.9305 14.8312 37.044 14.8783 37.1624 14.8783Z" fill="#3B2645"/>
<path d="M36.2695 16.4549C36.3872 16.4549 36.5002 16.4084 36.5838 16.3256C36.6674 16.2427 36.7149 16.1302 36.7159 16.0125V11.0497C36.7159 10.9313 36.6689 10.8177 36.5852 10.734C36.5015 10.6503 36.3879 10.6033 36.2695 10.6033C36.1511 10.6033 36.0376 10.6503 35.9539 10.734C35.8702 10.8177 35.8231 10.9313 35.8231 11.0497V16.0125C35.8242 16.1302 35.8717 16.2427 35.9553 16.3256C36.0389 16.4084 36.1518 16.4549 36.2695 16.4549Z" fill="#291B30"/>
<path d="M35.3768 17.219C35.4951 17.219 35.6087 17.172 35.6924 17.0883C35.7761 17.0046 35.8232 16.891 35.8232 16.7726V10.4464C35.8232 10.328 35.7761 10.2145 35.6924 10.1308C35.6087 10.047 35.4951 10 35.3768 10C35.2584 10 35.1448 10.047 35.0611 10.1308C34.9774 10.2145 34.9303 10.328 34.9303 10.4464V16.7605C34.9287 16.8202 34.9391 16.8795 34.9608 16.9351C34.9825 16.9906 35.0151 17.0413 35.0567 17.084C35.0984 17.1268 35.1481 17.1607 35.2031 17.1839C35.258 17.2071 35.3171 17.219 35.3768 17.219Z" fill="#3B2645"/>
<path d="M16.8808 14.098C16.8967 14.1379 16.9215 14.1736 16.9532 14.2026C17.0011 14.2343 17.0567 14.2523 17.114 14.2549C17.2927 14.2717 17.473 14.2623 17.6489 14.2267C17.8122 14.205 17.9622 14.125 18.0712 14.0015C18.128 13.9203 18.1627 13.8256 18.1719 13.7269C18.1811 13.6282 18.1644 13.5288 18.1235 13.4385C18.063 13.2963 17.9693 13.1707 17.8504 13.072C17.7315 12.9734 17.5907 12.9046 17.4398 12.8714C17.1904 12.8151 16.559 12.8392 16.4585 13.1489C16.4062 13.3017 16.555 13.4546 16.6274 13.5752C16.6998 13.6959 16.8084 13.9291 16.8808 14.098Z" fill="#FFEDE5"/>
<path d="M32.8953 14.098C32.8793 14.1389 32.853 14.175 32.8189 14.2026C32.7713 14.2348 32.7155 14.2529 32.658 14.2549C32.4807 14.2716 32.3018 14.2621 32.1272 14.2267C31.9587 14.207 31.803 14.127 31.6888 14.0015C31.6318 13.9203 31.5974 13.8254 31.5889 13.7265C31.5804 13.6276 31.5982 13.5283 31.6405 13.4385C31.7007 13.2968 31.7937 13.1714 31.9119 13.0728C32.03 12.9742 32.17 12.9052 32.3202 12.8714C32.5736 12.8151 33.205 12.8392 33.3055 13.1489C33.3578 13.3017 33.209 13.4546 33.1366 13.5752C33.0642 13.6959 32.9838 13.9291 32.8953 14.098Z" fill="#FFEDE5"/>
<path d="M26.6214 47.165C26.2035 47.1294 25.7951 47.0205 25.4149 46.8432L24.4497 41.4541C24.4497 41.4541 25.6562 43.1794 26.6214 47.165Z" fill="#291B30"/>
<path d="M23.1306 32.2925C23.1283 32.3139 23.1283 32.3354 23.1306 32.3568C23.1306 32.3568 23.1668 32.3568 23.1587 32.3568L23.1306 32.2925Z" fill="#D6BED3"/>
<path d="M27.3172 28.13C27.1324 27.5174 27.0072 26.8885 26.9432 26.2518C26.9432 26.2348 26.9364 26.2184 26.9243 26.2063C26.9122 26.1943 26.8959 26.1875 26.8788 26.1875C26.8617 26.1875 26.8454 26.1943 26.8333 26.2063C26.8212 26.2184 26.8145 26.2348 26.8145 26.2518C26.6737 27.4141 27.1643 28.8338 27.7757 29.8111C27.7862 29.8259 27.8015 29.8367 27.819 29.8418C27.8366 29.8468 27.8553 29.8457 27.8721 29.8387C27.8889 29.8317 27.9029 29.8191 27.9117 29.8032C27.9204 29.7872 27.9235 29.7687 27.9204 29.7508C27.7676 29.1958 27.4982 28.677 27.3172 28.13Z" fill="#D6BED3"/>
<path d="M22.8892 26.0348C22.5594 26.5536 22.2779 27.1046 21.9481 27.6435C21.6183 28.1824 21.2323 28.6409 20.9427 29.1798C20.9374 29.1867 20.935 29.1955 20.9361 29.2042C20.9373 29.2128 20.9418 29.2207 20.9487 29.2261C20.9557 29.2314 20.9644 29.2337 20.9731 29.2326C20.9818 29.2315 20.9896 29.227 20.995 29.22C21.8656 28.3157 22.549 27.2483 23.0058 26.079C23.026 26.0147 22.9254 25.9745 22.8892 26.0348Z" fill="#D6BED3"/>
</g>
</svg>
