<svg width="375" height="444" viewBox="0 0 375 444" fill="none" xmlns="http://www.w3.org/2000/svg">
<path d="M375 273.901C375 273.901 302.933 436.894 191.1 442.5C79.2667 448.105 0 387.512 0 387.512V0H375V273.901Z" fill="url(#paint0_linear_137_552)"/>
<path d="M141.3 353.412C121.1 404.229 126.867 438.562 126.867 438.562C146.033 442.066 165.5 443.5 184.967 442.867C209.633 442.066 232.433 434.392 253.1 422.747C253.8 394.519 244.167 369.328 237.3 355.014C193.133 376.402 154.6 360.419 141.3 353.412Z" fill="#003049"/>
<path d="M147.233 339.732C145.067 344.404 143.067 348.975 141.333 353.412C154.6 360.419 193.167 376.435 237.3 355.014C233.533 347.173 230.567 342.602 230.567 342.602C230.567 342.602 174.4 281.475 147.233 339.732Z" fill="#FEF9EF"/>
<path d="M191.1 442.5V424.916L206.367 414.305L196.267 428.419L197.3 441.999L191.1 442.5Z" fill="#543753"/>
<path d="M118.533 229.625C118.533 229.625 117 230.192 116.733 245.74C116.467 261.289 115.3 292.219 115.3 292.219C115.3 292.219 101.2 279.106 100.167 272.5C99.1332 265.893 99.5666 259.954 98.8666 256.317C98.1666 252.681 98.0332 242.737 98.3332 240.869C98.6332 239 93.8999 238.7 92.5999 241.47C91.2999 244.239 90.8666 253.448 90.1999 253.782C89.5332 254.115 81.8999 254.816 81.1665 256.484C80.4332 258.153 81.7332 261.189 80.5999 263.725C79.4665 266.26 80.6999 268.062 80.5999 269.997C80.4999 271.933 80.0332 272.667 80.8999 275.603C81.7665 278.539 81.9332 281.008 83.3332 281.475L84.7332 281.942L89.6332 283.611C89.6332 283.611 110.633 330.957 121.033 331.991C131.433 333.026 136.867 324.751 138.167 318.078C139.467 311.405 146.433 271.432 146.433 271.432L118.533 229.625Z" fill="#FFEDE5"/>
<path d="M130.333 262.523L141.867 297.591L146.433 271.399L130.333 262.523Z" fill="#E0855C"/>
<path d="M115.3 292.186C115.3 292.186 125.1 300.427 128.333 307.2C128.333 307.2 123.1 293.32 115.5 286.881L115.3 292.186Z" fill="#E0855C"/>
<path d="M86.3666 281.275C86.3666 281.275 96.5999 281.008 97.4332 280.374C98.2666 279.74 98.2999 276.737 97.8666 276.37C97.8666 276.37 98.6999 271.999 97.9332 270.865C97.9332 270.865 98.2332 267.628 97.8999 265.727C97.8999 265.727 99.5999 275.469 99.3999 277.004C99.1999 278.539 99.9999 281.142 95.3999 281.909C90.7999 282.676 86.3666 281.275 86.3666 281.275Z" fill="#E0855C"/>
<path d="M97.9332 270.932C97.8998 270.932 97.8999 270.932 97.8665 270.932C97.6999 270.898 97.5665 270.731 97.5998 270.565C98.0332 267.862 97.3332 262.624 97.3332 262.59V262.523V262.457C97.6332 261.289 98.2665 257.986 97.3999 256.985C96.6332 256.084 89.2332 255.85 84.7332 255.917C84.5665 255.917 84.3998 255.784 84.3998 255.583C84.3998 255.383 84.5332 255.25 84.7332 255.25C86.7332 255.216 96.6999 255.15 97.8999 256.551C99.0999 257.952 98.1665 261.856 97.9999 262.557C98.0665 263.191 98.6665 267.995 98.2332 270.665C98.2332 270.832 98.0665 270.932 97.9332 270.932Z" fill="#472938"/>
<path d="M97.6666 262.857C97.6332 262.857 97.6666 262.857 97.6666 262.857L86.9332 262.357C86.7332 262.357 86.5999 262.19 86.5999 262.023C86.5999 261.823 86.7332 261.689 86.9332 261.689L97.6666 262.19C97.8666 262.19 97.9999 262.357 97.9999 262.523C97.9999 262.724 97.8332 262.857 97.6666 262.857Z" fill="#472938"/>
<path d="M97.8332 276.704H87.2666C87.0666 276.704 86.9332 276.571 86.9332 276.37C86.9332 276.17 87.0666 276.037 87.2666 276.037H97.8332C98.0332 276.037 98.1666 276.17 98.1666 276.37C98.1666 276.571 98.0332 276.704 97.8332 276.704Z" fill="#472938"/>
<path d="M98.0332 269.43H85.8999C85.6999 269.43 85.5665 269.297 85.5665 269.097C85.5665 268.896 85.6999 268.763 85.8999 268.763H98.0332C98.2332 268.763 98.3665 268.896 98.3665 269.097C98.3665 269.297 98.2332 269.43 98.0332 269.43Z" fill="#472938"/>
<path d="M278.967 213.375L299.167 212.608C300.033 212.575 300.767 213.242 300.8 214.109L302.367 255.817C302.4 256.684 301.733 257.418 300.867 257.452L280.667 258.219C279.8 258.253 279.067 257.585 279.033 256.718L277.467 215.01C277.433 214.109 278.1 213.409 278.967 213.375Z" fill="#3B2645"/>
<path d="M280.6 256.851C280.467 256.851 280.367 256.751 280.367 256.618L278.8 214.91C278.8 214.843 278.833 214.777 278.867 214.743C278.9 214.71 278.967 214.677 279.033 214.677L299.233 213.909C299.367 213.909 299.467 214.009 299.467 214.143L301.033 255.85C301.033 255.984 300.933 256.084 300.8 256.084L280.6 256.851Z" fill="#FEF9EF"/>
<path d="M216.333 208.204C216.333 208.204 237.533 210.339 241.467 227.556C245.4 244.773 252.667 285.679 252.667 285.679C252.667 285.679 268.133 260.889 269.367 256.951C270.6 253.014 274.6 239.701 274.467 235.163C274.333 230.626 278.767 233.862 278.767 239.267L279.433 257.152C279.467 257.752 279.967 258.219 280.567 258.186H280.6L301.067 256.651C301.767 256.618 302.267 256.017 302.233 255.316V255.083C302.233 255.083 300.767 252.047 301.2 250.645C301.633 249.244 305.133 249.11 305.533 249.444C305.933 249.778 308.1 253.948 308.033 255.083C307.967 256.217 305.433 259.754 303.767 260.288C302.1 260.822 285.5 264.826 282.1 269.964C278.7 275.102 263.833 320.113 251.767 323.583C239.7 327.053 227.933 294.321 225.167 284.745C222.4 275.169 216.333 208.204 216.333 208.204Z" fill="#FFEDE5"/>
<path d="M221.667 261.289C222.967 272.333 224.267 281.609 225.167 284.712C226.467 289.183 229.733 298.759 234.1 307.301L235.433 244.406L221.667 261.289Z" fill="#E0855C"/>
<path d="M301.667 237.566C301.667 237.566 308.9 241.269 308.767 242.838C308.633 244.406 307.267 247.208 305.867 247.075C304.467 246.942 301.833 245.54 301.1 243.905C300.367 242.27 300 237.032 301.667 237.566Z" fill="#FFEDE5"/>
<path d="M302.033 243.004C302.033 243.004 309.267 246.708 309.133 248.276C309 249.844 307.633 252.647 306.233 252.514C304.833 252.38 302.2 250.979 301.467 249.344C300.733 247.709 300.367 242.471 302.033 243.004Z" fill="#FFEDE5"/>
<path d="M302.033 230.959C302.033 230.959 309.267 234.663 309.133 236.231C309 237.799 307.633 240.602 306.233 240.469C304.833 240.335 302.2 238.934 301.467 237.299C300.733 235.664 300.367 230.392 302.033 230.959Z" fill="#FFEDE5"/>
<path d="M246.133 298.926C246.067 298.926 246.033 298.926 245.967 298.892C245.8 298.826 245.733 298.592 245.833 298.459L252.367 285.546C252.433 285.379 252.667 285.312 252.8 285.413C252.967 285.479 253.033 285.713 252.933 285.846L246.4 298.759C246.367 298.859 246.267 298.926 246.133 298.926Z" fill="#472938"/>
<path d="M152.5 317.244C152.533 328.088 147.233 339.699 147.233 339.699C147.233 339.699 183.933 360.319 230.533 342.568C230.533 342.568 224.833 327.887 225.566 312.539C187.9 305.532 152.5 317.244 152.5 317.244Z" fill="#FFEDE5"/>
<path d="M118.533 229.625C115.8 233.729 126.333 254.149 136.4 274.802C145.567 254.282 140.2 229.358 137.1 218.647C130 221.383 121.3 225.421 118.533 229.625Z" fill="#FFEDE5"/>
<path d="M225.566 312.572C225.633 310.971 225.8 309.369 226.033 307.768C226.166 306.8 226.333 305.766 226.5 304.665C196.6 296.49 161 305.832 150.966 308.802C151.933 312.105 152.5 314.975 152.5 317.244C152.5 317.244 187.9 305.532 225.566 312.572Z" fill="#FEF9EF"/>
<path d="M136.4 275.903C136.267 275.903 136.167 275.837 136.1 275.703L128.667 259.687C128.6 259.521 128.667 259.32 128.833 259.254C129 259.187 129.2 259.254 129.267 259.42L136.7 275.436C136.767 275.603 136.7 275.803 136.533 275.87C136.5 275.903 136.433 275.903 136.4 275.903Z" fill="#472938"/>
<path d="M193.4 346.606C193.915 346.606 194.333 346.187 194.333 345.671C194.333 345.156 193.915 344.737 193.4 344.737C192.884 344.737 192.467 345.156 192.467 345.671C192.467 346.187 192.884 346.606 193.4 346.606Z" fill="#E0855C"/>
<path d="M233.833 246.374C233.833 246.141 233.833 245.907 233.833 245.707C233.833 245.607 233.833 245.473 233.833 245.373C233.833 245.106 233.833 244.873 233.8 244.606C233.8 244.539 233.8 244.472 233.8 244.372C233.8 244.039 233.766 243.738 233.766 243.438V243.238C233.766 243.004 233.733 242.737 233.733 242.504C233.733 242.404 233.733 242.304 233.7 242.204C233.7 242.003 233.666 241.803 233.666 241.636L233.633 241.303C233.633 241.136 233.6 240.936 233.566 240.769C233.566 240.669 233.533 240.569 233.533 240.435C233.5 240.235 233.5 240.068 233.467 239.868C233.467 239.768 233.433 239.701 233.433 239.601C233.4 239.334 233.367 239.067 233.3 238.8C230.7 222.985 216.3 208.17 216.3 208.17C216.3 208.17 221.9 230.425 223.7 233.028C230.266 242.571 233.933 248.31 233.467 255.917C233.5 255.517 233.533 255.15 233.566 254.749C233.566 254.649 233.566 254.549 233.566 254.449C233.6 254.149 233.6 253.848 233.633 253.581C233.633 253.481 233.633 253.348 233.666 253.248C233.666 252.981 233.7 252.714 233.7 252.414L233.733 252.08C233.733 251.78 233.766 251.513 233.766 251.246C233.766 251.146 233.766 251.079 233.766 250.979C233.8 250.245 233.833 249.511 233.833 248.777C233.833 248.677 233.833 248.61 233.833 248.51C233.833 248.243 233.833 247.976 233.833 247.709V247.375C233.833 247.142 233.833 246.908 233.833 246.675V246.374Z" fill="#FFEDE5"/>
<path d="M223.7 233.061C221.9 230.459 216.333 208.204 216.333 208.204H212.1L147.233 215.144C147.233 215.144 142.667 216.478 137.1 218.614C140.167 229.324 145.567 254.282 136.4 274.769C142.433 287.181 148.267 299.66 150.933 308.802C160.967 305.799 196.567 296.49 226.467 304.665C228.433 292.052 232.233 271.966 233.467 255.95C233.933 248.343 230.267 242.604 223.7 233.061Z" fill="#003049"/>
<path d="M158.1 291.185C156.5 291.185 154.833 290.985 153.067 290.551C152.9 290.517 152.767 290.317 152.833 290.15C152.867 289.984 153.067 289.85 153.233 289.917C159.567 291.518 164.7 289.683 170.1 287.781C175.233 285.946 180.533 284.078 187.333 284.845C201.067 286.38 223.433 282.677 223.667 282.643C223.867 282.61 224.033 282.743 224.067 282.91C224.1 283.077 223.967 283.277 223.8 283.31C223.567 283.344 201.1 287.081 187.3 285.546C180.667 284.812 175.433 286.647 170.367 288.449C166.3 289.817 162.433 291.185 158.1 291.185Z" fill="#472938"/>
<path d="M209.367 119.25C209.367 119.25 226.767 120.985 221.533 144.141C216.3 167.297 221.467 166.263 226 178.508C230.533 190.753 206.833 182.645 206.833 182.645C206.833 182.645 218.9 200.73 154.767 192.922C101.867 186.482 137.167 158.889 137.167 158.889C137.167 158.889 121.267 160.991 140.3 144.174C153.7 132.329 160.833 88.7868 209.367 119.25Z" fill="#3B2645"/>
<path d="M197.833 183.313C197.833 183.313 192.467 202.164 199.833 205.668C205.5 208.371 212.1 208.204 212.1 208.204C212.1 208.204 209.833 258.186 181.833 258.72C153.833 259.254 147.233 215.144 147.233 215.144C147.233 215.144 158.633 211.14 162.033 203.299C165.433 195.458 165.6 184.48 165.6 184.48L197.833 183.313Z" fill="#FFEDE5"/>
<path d="M211.285 169.06C214.138 164.113 214.073 158.729 211.14 157.033C208.207 155.338 203.515 157.974 200.662 162.921C197.808 167.868 197.873 173.253 200.807 174.948C203.74 176.643 208.431 174.007 211.285 169.06Z" fill="#E0855C"/>
<path d="M204.3 169.432C204.2 169.432 204.133 169.399 204.067 169.332C203.933 169.199 203.933 168.999 204.067 168.865L209.1 164.127C209.233 163.994 209.433 163.994 209.567 164.127C209.7 164.261 209.7 164.461 209.567 164.594L204.533 169.332C204.467 169.432 204.4 169.432 204.3 169.432Z" fill="#472938"/>
<path d="M158.838 171.188C162.134 170.408 163.741 165.269 162.427 159.71C161.114 154.151 157.377 150.277 154.08 151.058C150.784 151.838 149.177 156.978 150.491 162.536C151.805 168.095 155.542 171.969 158.838 171.188Z" fill="#FFEDE5"/>
<path d="M196.167 199.395C195.167 192.655 197.833 183.279 197.833 183.279L165.567 184.48C165.567 184.48 165.533 186.916 165.133 190.319C165.133 190.353 181.233 209.872 196.167 199.395Z" fill="#E0855C"/>
<path d="M157.967 164.361C157.867 164.361 157.767 164.294 157.7 164.194L154.5 159.289C154.4 159.122 154.433 158.922 154.6 158.822C154.767 158.722 154.967 158.755 155.067 158.922L158.267 163.827C158.367 163.994 158.333 164.194 158.167 164.294C158.1 164.361 158.033 164.361 157.967 164.361Z" fill="#472938"/>
<path d="M160.1 129.16C160.1 129.16 148.633 191.12 175.567 197.56C202.5 204 212.1 146.21 211.4 134.198C210.7 122.186 164.1 118.549 160.1 129.16Z" fill="#FFEDE5"/>
<path d="M195.933 157.487C196.8 157.654 197.367 158.488 197.233 159.356L197.067 160.323C196.9 161.191 196.067 161.758 195.2 161.625C194.333 161.458 193.767 160.624 193.9 159.756L194.067 158.789C194.233 157.921 195.067 157.321 195.933 157.487Z" fill="#472938"/>
<path d="M170.833 154.685C171.733 154.685 172.433 155.385 172.433 156.286V157.254C172.433 158.121 171.733 158.855 170.833 158.855C169.967 158.855 169.233 158.155 169.233 157.254V156.286C169.233 155.385 169.933 154.685 170.833 154.685Z" fill="#472938"/>
<path d="M201.8 155.819C201.8 155.819 200.6 154.017 197.133 153.417C193.667 152.816 192.567 153.016 192.533 151.915C192.5 150.814 200.267 149.113 201.8 155.819Z" fill="#472938"/>
<path d="M165.8 151.248C165.8 151.248 167.533 149.947 171 150.514C174.467 151.115 175.433 151.648 175.833 150.614C176.233 149.58 169.467 145.409 165.8 151.248Z" fill="#472938"/>
<path d="M172.4 174.871L186.8 176.506C186.8 176.506 184.567 186.249 178.2 185.114C171.867 184.013 172.4 174.871 172.4 174.871Z" fill="white"/>
<path d="M181.933 172.469C180.933 172.469 179.833 172.202 178.833 171.735C178.667 171.668 178.6 171.468 178.667 171.301C178.733 171.134 178.933 171.067 179.1 171.134C180.567 171.835 182.2 172.002 183.3 171.568C183.767 171.401 184.067 171.134 184.2 170.834C184.633 169.799 184.467 166.596 184.267 162.893L184.2 161.591C183.833 154.751 187.933 153.45 188.1 153.383C188.267 153.317 188.467 153.417 188.5 153.617C188.567 153.784 188.467 153.984 188.267 154.017C188.1 154.051 184.5 155.252 184.833 161.558L184.9 162.859C185.1 166.796 185.3 169.933 184.767 171.101C184.567 171.568 184.133 171.968 183.5 172.202C183.1 172.402 182.533 172.469 181.933 172.469Z" fill="#472938"/>
<path d="M206.833 163.627C206.833 163.627 209 146.91 201.8 137.768C201.8 137.768 195.7 149.313 185.7 145.309C185.7 145.309 171.967 157.22 157.967 153.75C143.967 150.28 148.933 117.515 169.233 116.114C189.533 114.712 230.833 122.887 206.833 163.627Z" fill="#3B2645"/>
<defs>
<linearGradient id="paint0_linear_137_552" x1="-43.1034" y1="243.576" x2="435.196" y2="253.055" gradientUnits="userSpaceOnUse">
<stop stop-color="#F77F00"/>
<stop offset="1" stop-color="#D62828"/>
</linearGradient>
</defs>
</svg>
