<svg width="375" height="812" viewBox="0 0 375 812" fill="none" xmlns="http://www.w3.org/2000/svg">
<rect width="375" height="812" rx="40" fill="white"/>
<path d="M145.292 422.454C146.66 422.454 147.842 422.712 148.838 423.228C149.846 423.732 150.614 424.458 151.142 425.406C151.682 426.354 151.952 427.47 151.952 428.754C151.952 430.038 151.682 431.154 151.142 432.102C150.614 433.038 149.846 433.758 148.838 434.262C147.842 434.754 146.66 435 145.292 435H141.386V422.454H145.292ZM145.292 433.65C146.912 433.65 148.148 433.224 149 432.372C149.852 431.508 150.278 430.302 150.278 428.754C150.278 427.194 149.846 425.976 148.982 425.1C148.13 424.224 146.9 423.786 145.292 423.786H143.024V433.65H145.292ZM155.751 426.738C156.039 426.174 156.447 425.736 156.975 425.424C157.515 425.112 158.169 424.956 158.937 424.956V426.648H158.505C156.669 426.648 155.751 427.644 155.751 429.636V435H154.113V425.136H155.751V426.738ZM169.827 429.69C169.827 430.002 169.809 430.332 169.773 430.68H161.889C161.949 431.652 162.279 432.414 162.879 432.966C163.491 433.506 164.229 433.776 165.093 433.776C165.801 433.776 166.389 433.614 166.857 433.29C167.337 432.954 167.673 432.51 167.865 431.958H169.629C169.365 432.906 168.837 433.68 168.045 434.28C167.253 434.868 166.269 435.162 165.093 435.162C164.157 435.162 163.317 434.952 162.573 434.532C161.841 434.112 161.265 433.518 160.845 432.75C160.425 431.97 160.215 431.07 160.215 430.05C160.215 429.03 160.419 428.136 160.827 427.368C161.235 426.6 161.805 426.012 162.537 425.604C163.281 425.184 164.133 424.974 165.093 424.974C166.029 424.974 166.857 425.178 167.577 425.586C168.297 425.994 168.849 426.558 169.233 427.278C169.629 427.986 169.827 428.79 169.827 429.69ZM168.135 429.348C168.135 428.724 167.997 428.19 167.721 427.746C167.445 427.29 167.067 426.948 166.587 426.72C166.119 426.48 165.597 426.36 165.021 426.36C164.193 426.36 163.485 426.624 162.897 427.152C162.321 427.68 161.991 428.412 161.907 429.348H168.135ZM171.378 430.032C171.378 429.024 171.582 428.142 171.99 427.386C172.398 426.618 172.956 426.024 173.664 425.604C174.384 425.184 175.182 424.974 176.058 424.974C176.922 424.974 177.672 425.16 178.308 425.532C178.944 425.904 179.418 426.372 179.73 426.936V425.136H181.386V435H179.73V433.164C179.406 433.74 178.92 434.22 178.272 434.604C177.636 434.976 176.892 435.162 176.04 435.162C175.164 435.162 174.372 434.946 173.664 434.514C172.956 434.082 172.398 433.476 171.99 432.696C171.582 431.916 171.378 431.028 171.378 430.032ZM179.73 430.05C179.73 429.306 179.58 428.658 179.28 428.106C178.98 427.554 178.572 427.134 178.056 426.846C177.552 426.546 176.994 426.396 176.382 426.396C175.77 426.396 175.212 426.54 174.708 426.828C174.204 427.116 173.802 427.536 173.502 428.088C173.202 428.64 173.052 429.288 173.052 430.032C173.052 430.788 173.202 431.448 173.502 432.012C173.802 432.564 174.204 432.99 174.708 433.29C175.212 433.578 175.77 433.722 176.382 433.722C176.994 433.722 177.552 433.578 178.056 433.29C178.572 432.99 178.98 432.564 179.28 432.012C179.58 431.448 179.73 430.794 179.73 430.05ZM196.016 424.956C196.784 424.956 197.468 425.118 198.068 425.442C198.668 425.754 199.142 426.228 199.49 426.864C199.838 427.5 200.012 428.274 200.012 429.186V435H198.392V429.42C198.392 428.436 198.146 427.686 197.654 427.17C197.174 426.642 196.52 426.378 195.692 426.378C194.84 426.378 194.162 426.654 193.658 427.206C193.154 427.746 192.902 428.532 192.902 429.564V435H191.282V429.42C191.282 428.436 191.036 427.686 190.544 427.17C190.064 426.642 189.41 426.378 188.582 426.378C187.73 426.378 187.052 426.654 186.548 427.206C186.044 427.746 185.792 428.532 185.792 429.564V435H184.154V425.136H185.792V426.558C186.116 426.042 186.548 425.646 187.088 425.37C187.64 425.094 188.246 424.956 188.906 424.956C189.734 424.956 190.466 425.142 191.102 425.514C191.738 425.886 192.212 426.432 192.524 427.152C192.8 426.456 193.256 425.916 193.892 425.532C194.528 425.148 195.236 424.956 196.016 424.956ZM213.779 428.538C214.235 428.61 214.649 428.796 215.021 429.096C215.405 429.396 215.705 429.768 215.921 430.212C216.149 430.656 216.263 431.13 216.263 431.634C216.263 432.27 216.101 432.846 215.777 433.362C215.453 433.866 214.979 434.268 214.355 434.568C213.743 434.856 213.017 435 212.177 435H207.497V422.454H211.997C212.849 422.454 213.575 422.598 214.175 422.886C214.775 423.162 215.225 423.54 215.525 424.02C215.825 424.5 215.975 425.04 215.975 425.64C215.975 426.384 215.771 427.002 215.363 427.494C214.967 427.974 214.439 428.322 213.779 428.538ZM209.135 427.872H211.889C212.657 427.872 213.251 427.692 213.671 427.332C214.091 426.972 214.301 426.474 214.301 425.838C214.301 425.202 214.091 424.704 213.671 424.344C213.251 423.984 212.645 423.804 211.853 423.804H209.135V427.872ZM212.033 433.65C212.849 433.65 213.485 433.458 213.941 433.074C214.397 432.69 214.625 432.156 214.625 431.472C214.625 430.776 214.385 430.23 213.905 429.834C213.425 429.426 212.783 429.222 211.979 429.222H209.135V433.65H212.033ZM219.382 423.534C219.07 423.534 218.806 423.426 218.59 423.21C218.374 422.994 218.266 422.73 218.266 422.418C218.266 422.106 218.374 421.842 218.59 421.626C218.806 421.41 219.07 421.302 219.382 421.302C219.682 421.302 219.934 421.41 220.138 421.626C220.354 421.842 220.462 422.106 220.462 422.418C220.462 422.73 220.354 422.994 220.138 423.21C219.934 423.426 219.682 423.534 219.382 423.534ZM220.174 425.136V435H218.536V425.136H220.174ZM227.034 424.974C227.886 424.974 228.63 425.16 229.266 425.532C229.914 425.904 230.394 426.372 230.706 426.936V425.136H232.362V435.216C232.362 436.116 232.17 436.914 231.786 437.61C231.402 438.318 230.85 438.87 230.13 439.266C229.422 439.662 228.594 439.86 227.646 439.86C226.35 439.86 225.27 439.554 224.406 438.942C223.542 438.33 223.032 437.496 222.876 436.44H224.496C224.676 437.04 225.048 437.52 225.612 437.88C226.176 438.252 226.854 438.438 227.646 438.438C228.546 438.438 229.278 438.156 229.842 437.592C230.418 437.028 230.706 436.236 230.706 435.216V433.146C230.382 433.722 229.902 434.202 229.266 434.586C228.63 434.97 227.886 435.162 227.034 435.162C226.158 435.162 225.36 434.946 224.64 434.514C223.932 434.082 223.374 433.476 222.966 432.696C222.558 431.916 222.354 431.028 222.354 430.032C222.354 429.024 222.558 428.142 222.966 427.386C223.374 426.618 223.932 426.024 224.64 425.604C225.36 425.184 226.158 424.974 227.034 424.974ZM230.706 430.05C230.706 429.306 230.556 428.658 230.256 428.106C229.956 427.554 229.548 427.134 229.032 426.846C228.528 426.546 227.97 426.396 227.358 426.396C226.746 426.396 226.188 426.54 225.684 426.828C225.18 427.116 224.778 427.536 224.478 428.088C224.178 428.64 224.028 429.288 224.028 430.032C224.028 430.788 224.178 431.448 224.478 432.012C224.778 432.564 225.18 432.99 225.684 433.29C226.188 433.578 226.746 433.722 227.358 433.722C227.97 433.722 228.528 433.578 229.032 433.29C229.548 432.99 229.956 432.564 230.256 432.012C230.556 431.448 230.706 430.794 230.706 430.05Z" fill="#7B6F72"/>
<path d="M159.811 375.728V380.66H149.515V385.988H157.219V390.776H149.515V401H143.359V375.728H159.811ZM166.142 378.824C165.062 378.824 164.174 378.512 163.478 377.888C162.806 377.24 162.47 376.448 162.47 375.512C162.47 374.552 162.806 373.76 163.478 373.136C164.174 372.488 165.062 372.164 166.142 372.164C167.198 372.164 168.062 372.488 168.734 373.136C169.43 373.76 169.778 374.552 169.778 375.512C169.778 376.448 169.43 377.24 168.734 377.888C168.062 378.512 167.198 378.824 166.142 378.824ZM169.202 380.912V401H163.046V380.912H169.202ZM184.86 395.78V401H181.728C179.496 401 177.756 400.46 176.508 399.38C175.26 398.276 174.636 396.488 174.636 394.016V386.024H172.188V380.912H174.636V376.016H180.792V380.912H184.824V386.024H180.792V394.088C180.792 394.688 180.936 395.12 181.224 395.384C181.512 395.648 181.992 395.78 182.664 395.78H184.86Z" fill="#1D1617"/>
<path d="M194.337 375.728V390.848C194.337 392.36 194.709 393.524 195.453 394.34C196.197 395.156 197.289 395.564 198.729 395.564C200.169 395.564 201.273 395.156 202.041 394.34C202.809 393.524 203.193 392.36 203.193 390.848V375.728H209.349V390.812C209.349 393.068 208.869 394.976 207.909 396.536C206.949 398.096 205.653 399.272 204.021 400.064C202.413 400.856 200.613 401.252 198.621 401.252C196.629 401.252 194.841 400.868 193.257 400.1C191.697 399.308 190.461 398.132 189.549 396.572C188.637 394.988 188.181 393.068 188.181 390.812V375.728H194.337ZM219.827 383.756C220.427 382.82 221.255 382.064 222.311 381.488C223.367 380.912 224.603 380.624 226.019 380.624C227.675 380.624 229.175 381.044 230.519 381.884C231.863 382.724 232.919 383.924 233.687 385.484C234.479 387.044 234.875 388.856 234.875 390.92C234.875 392.984 234.479 394.808 233.687 396.392C232.919 397.952 231.863 399.164 230.519 400.028C229.175 400.868 227.675 401.288 226.019 401.288C224.627 401.288 223.391 401 222.311 400.424C221.255 399.848 220.427 399.104 219.827 398.192V410.576H213.671V380.912H219.827V383.756ZM228.611 390.92C228.611 389.384 228.179 388.184 227.315 387.32C226.475 386.432 225.431 385.988 224.183 385.988C222.959 385.988 221.915 386.432 221.051 387.32C220.211 388.208 219.791 389.42 219.791 390.956C219.791 392.492 220.211 393.704 221.051 394.592C221.915 395.48 222.959 395.924 224.183 395.924C225.407 395.924 226.451 395.48 227.315 394.592C228.179 393.68 228.611 392.456 228.611 390.92Z" fill="#F77F00"/>
</svg>
